M48
;Layer_Color=9474304
;FILE_FORMAT=4:4
METRIC,LZ
;TYPE=PLATED
T01F00S00C0.2000
T02F00S00C0.2500
;TYPE=NON_PLATED
T03F00S00C2.4000
%
T01
X00045Y00083
X00055
X0005Y00093
X0006
X0007
X0008
X0009
X001
X00065Y00103
X00055
X00045
X0005Y00113
X00045Y00123
X00053Y00149
X00078Y00146
X00119Y00141
X00141Y001406
X00173494Y00143094
X00177316Y00148758
X001837Y0014822
X00189854Y001485
X00206Y001486
X00213
X00219
X00221Y00129
X00261Y00141
X00255Y00083
Y00063
X0018Y00073
X0016
X0015
X00155Y00083
X00165
X0001Y00073
X00015Y00063
X000148Y00146219
X0003Y00146
X00031326Y00136335
X0Y00134
X00038Y00152
X0002Y00273
X0001
X00015Y00283
X00025
X0005Y00211
X00054325Y00194675
X00053Y00174
X00061717Y0015355
X00077Y00183
X00079Y001935
X00075Y0021
X00125Y00224
X00134Y00219
X00143Y00220599
Y002266
X00143399Y00232449
X00143232Y00214696
X00161198Y00196094
X00159Y001826
X00162576Y001726
X00179Y00176
X00179Y00182
Y00192
X00181Y002016
X00187762Y00201035
X00199Y00201
X00218
X00227Y00191
Y0018
X00229Y00156
X00245Y001586
X00256737Y00164937
X00257223Y00174615
X00254771Y00189958
X0025355Y001986
X00255Y00223
X0023555Y00235949
X00225751Y00239601
X00235Y00263
X00246189Y00264503
X0025Y00273
X0024
X0023
X00235Y00283
X00245
X00255
X00225
X00215
X00205
X00195
X00185
X00175
X00165
X0019Y00273
X00194155Y00231934
X00132Y00242
X00137138Y00267232
X00118Y00267
X00108036Y00151918
X00128Y00151
X00177Y001546
X00176Y001606
X00179008Y00167948
T02
X00051815Y0005806
X00065329
X00081741
X00096704
X00111667
X00126629
X00141592
X00156555
X00171518
X0016226Y00096314
X00206Y0009
X00202Y001126
X00214
X002255
X00206Y001276
X0019664Y0014895
X00248Y00058
X00065086Y00081
X00008Y00058
X00043Y00162
X00058Y00206
X00064Y00233
X00086Y00226
X00109Y0023
X0008275Y0026125
X0017Y0023525
X00188Y00241
X00165389Y00214989
X00138Y002006
X00144Y001841
X00151858Y00184458
X00154413Y00169604
X00144Y00169
X00193Y001646
X00213
Y001846
X00193
X00207Y001996
X00227
T03
X000483Y002625
X00213
M30
