G04*
G04 #@! TF.GenerationSoftware,Altium Limited,Altium Designer,25.8.1 (18)*
G04*
G04 Layer_Physical_Order=1*
G04 Layer_Color=255*
%FSLAX44Y44*%
%MOMM*%
G71*
G04*
G04 #@! TF.SameCoordinates,37AF7AFF-A48C-4EBF-8118-5EBCA45AC8C0*
G04*
G04*
G04 #@! TF.FilePolarity,Positive*
G04*
G01*
G75*
%ADD10C,0.2500*%
%ADD11C,0.2000*%
%ADD17R,0.5000X0.6000*%
%ADD18R,1.3000X0.8000*%
%ADD19R,0.5000X0.5000*%
%ADD20R,0.5000X0.5000*%
%ADD21R,0.6365X0.5400*%
%ADD22R,0.9000X0.3000*%
%ADD23R,0.2500X1.6500*%
G04:AMPARAMS|DCode=24|XSize=0.2mm|YSize=0.84mm|CornerRadius=0.025mm|HoleSize=0mm|Usage=FLASHONLY|Rotation=0.000|XOffset=0mm|YOffset=0mm|HoleType=Round|Shape=RoundedRectangle|*
%AMROUNDEDRECTD24*
21,1,0.2000,0.7900,0,0,0.0*
21,1,0.1500,0.8400,0,0,0.0*
1,1,0.0500,0.0750,-0.3950*
1,1,0.0500,-0.0750,-0.3950*
1,1,0.0500,-0.0750,0.3950*
1,1,0.0500,0.0750,0.3950*
%
%ADD24ROUNDEDRECTD24*%
%ADD26R,1.1000X1.2000*%
G04:AMPARAMS|DCode=27|XSize=0.84mm|YSize=0.2mm|CornerRadius=0.025mm|HoleSize=0mm|Usage=FLASHONLY|Rotation=0.000|XOffset=0mm|YOffset=0mm|HoleType=Round|Shape=RoundedRectangle|*
%AMROUNDEDRECTD27*
21,1,0.8400,0.1500,0,0,0.0*
21,1,0.7900,0.2000,0,0,0.0*
1,1,0.0500,0.3950,-0.0750*
1,1,0.0500,-0.3950,-0.0750*
1,1,0.0500,-0.3950,0.0750*
1,1,0.0500,0.3950,0.0750*
%
%ADD27ROUNDEDRECTD27*%
%ADD28R,0.6000X0.5000*%
%ADD30R,3.1000X3.1000*%
%ADD31R,1.1700X5.0000*%
%ADD32R,1.1700X4.0000*%
%ADD33R,1.1700X4.5999*%
%ADD34C,0.6000*%
%ADD35C,0.2603*%
%ADD36C,0.3000*%
%ADD37C,0.7000*%
%ADD38C,0.4000*%
%ADD39C,0.4600*%
%ADD40C,0.6500*%
G36*
X180810Y250110D02*
X180640Y250051D01*
X180490Y249951D01*
X180360Y249811D01*
X180250Y249631D01*
X180160Y249410D01*
X180090Y249151D01*
X180040Y248850D01*
X180010Y248510D01*
X180000Y248130D01*
X178000D01*
X177990Y248510D01*
X177960Y248850D01*
X177910Y249151D01*
X177840Y249410D01*
X177750Y249631D01*
X177640Y249811D01*
X177510Y249951D01*
X177360Y250051D01*
X177190Y250110D01*
X177000Y250131D01*
X181000D01*
X180810Y250110D01*
D02*
G37*
G36*
X180010Y245684D02*
X180040Y245338D01*
X180090Y245034D01*
X180160Y244770D01*
X180250Y244547D01*
X180360Y244364D01*
X180490Y244222D01*
X180640Y244120D01*
X180810Y244059D01*
X181000Y244039D01*
X177000D01*
X177190Y244059D01*
X177360Y244120D01*
X177510Y244222D01*
X177640Y244364D01*
X177750Y244547D01*
X177840Y244770D01*
X177910Y245034D01*
X177960Y245338D01*
X177990Y245684D01*
X178000Y246070D01*
X180000D01*
X180010Y245684D01*
D02*
G37*
G36*
X180810Y239111D02*
X180640Y239051D01*
X180490Y238951D01*
X180360Y238811D01*
X180250Y238631D01*
X180160Y238410D01*
X180090Y238151D01*
X180040Y237850D01*
X180010Y237511D01*
X180000Y237131D01*
X178000D01*
X177990Y237511D01*
X177960Y237850D01*
X177910Y238151D01*
X177840Y238410D01*
X177750Y238631D01*
X177640Y238811D01*
X177510Y238951D01*
X177360Y239051D01*
X177190Y239111D01*
X177000Y239130D01*
X181000D01*
X180810Y239111D01*
D02*
G37*
G36*
X180010Y235184D02*
X180040Y234839D01*
X180090Y234534D01*
X180160Y234270D01*
X180250Y234047D01*
X180360Y233864D01*
X180490Y233722D01*
X180640Y233620D01*
X180810Y233559D01*
X181000Y233539D01*
X177000D01*
X177190Y233559D01*
X177360Y233620D01*
X177510Y233722D01*
X177640Y233864D01*
X177750Y234047D01*
X177840Y234270D01*
X177910Y234534D01*
X177960Y234839D01*
X177990Y235184D01*
X178000Y235569D01*
X180000D01*
X180010Y235184D01*
D02*
G37*
G36*
X196530Y232972D02*
X196629Y232930D01*
X196813Y232871D01*
X197009Y232826D01*
X197219Y232793D01*
X197442Y232773D01*
X197679Y232767D01*
X197517Y230767D01*
X197281Y230761D01*
X196844Y230717D01*
X196643Y230678D01*
X196530Y230648D01*
Y229767D01*
X196511Y229957D01*
X196451Y230127D01*
X196350Y230277D01*
X196210Y230407D01*
X196087Y230482D01*
X195953Y230410D01*
X195809Y230315D01*
X195676Y230209D01*
X195707Y230635D01*
X195550Y230677D01*
X195250Y230727D01*
X194911Y230757D01*
X194531Y230767D01*
Y232767D01*
X194911Y232777D01*
X195250Y232807D01*
X195550Y232857D01*
X195811Y232927D01*
X195876Y232954D01*
X195910Y233420D01*
X196028Y233296D01*
X196158Y233185D01*
X196224Y233140D01*
X196350Y233257D01*
X196451Y233407D01*
X196511Y233577D01*
X196530Y233767D01*
Y232972D01*
D02*
G37*
G36*
X235359Y219130D02*
X235203Y219244D01*
X235019Y219300D01*
X234807D01*
X234567Y219244D01*
X234298Y219130D01*
X234001Y218961D01*
X233676Y218734D01*
X233322Y218452D01*
X232530Y217716D01*
X231116Y219130D01*
X231512Y219541D01*
X232134Y220276D01*
X232361Y220601D01*
X232530Y220898D01*
X232644Y221167D01*
X232700Y221407D01*
Y221619D01*
X232644Y221803D01*
X232530Y221959D01*
X235359Y219130D01*
D02*
G37*
G36*
X263534Y293078D02*
X264223Y292388D01*
X264597Y291488D01*
Y181103D01*
X263423Y180618D01*
X261707Y182334D01*
X260384Y183218D01*
X258823Y183528D01*
X258823Y183528D01*
X248885D01*
X248883Y183528D01*
X246742D01*
X245807Y183342D01*
X245466Y183487D01*
X244700Y184172D01*
X244728Y185425D01*
X245759Y186100D01*
X248000D01*
Y190600D01*
X249000D01*
Y191600D01*
X253500D01*
Y193155D01*
X253550Y193196D01*
X255618Y193607D01*
X257371Y194778D01*
X258542Y196532D01*
X258954Y198600D01*
X258542Y200667D01*
X257371Y202421D01*
X255618Y203592D01*
X254500Y203814D01*
Y206100D01*
X243500D01*
Y204678D01*
X237350D01*
X237276Y204664D01*
X233400D01*
X233078Y204928D01*
Y208950D01*
X233064Y209024D01*
Y212900D01*
X232885Y213800D01*
X233134Y213966D01*
X235041Y215874D01*
X235273Y216089D01*
X235359Y216072D01*
X235501Y216100D01*
X240500D01*
Y226448D01*
X240500Y226448D01*
X240500Y227100D01*
X239500Y227752D01*
X239500Y228370D01*
Y230600D01*
X235000D01*
Y231600D01*
X234000D01*
Y236100D01*
X231313D01*
X230635Y237370D01*
X230744Y237533D01*
X231065Y239147D01*
X237588Y245670D01*
X238472Y246993D01*
X238473Y247000D01*
X251500D01*
Y259000D01*
X250173D01*
Y260925D01*
X251181Y262435D01*
X251593Y264503D01*
X251181Y266570D01*
X250010Y268324D01*
X248257Y269495D01*
X246189Y269906D01*
X244121Y269495D01*
X242368Y268324D01*
X241196Y266570D01*
X240785Y264503D01*
X241196Y262435D01*
X242016Y261208D01*
Y259000D01*
X230500D01*
Y250118D01*
X225297Y244915D01*
X223683Y244594D01*
X221930Y243422D01*
X220759Y241669D01*
X220669Y241218D01*
X219454Y240849D01*
X213626Y246676D01*
X214062Y248015D01*
X216785Y248373D01*
X220313Y249834D01*
X223342Y252159D01*
X225666Y255187D01*
X227127Y258715D01*
X227625Y262500D01*
X227127Y266285D01*
X225666Y269813D01*
X223342Y272841D01*
X220313Y275166D01*
X216785Y276627D01*
X213000Y277125D01*
X209215Y276627D01*
X205687Y275166D01*
X202659Y272841D01*
X200334Y269813D01*
X198873Y266285D01*
X198375Y262500D01*
X198873Y258715D01*
X200334Y255187D01*
X202059Y252940D01*
X201102Y252101D01*
X197886Y255317D01*
Y256500D01*
X197552Y258179D01*
X196601Y259601D01*
X185870Y270333D01*
X184447Y271284D01*
X182768Y271618D01*
X153809D01*
X152131Y271284D01*
X150708Y270333D01*
X150603Y270176D01*
X149333D01*
X149227Y270333D01*
X147804Y271284D01*
X146126Y271618D01*
X140113D01*
X139206Y272224D01*
X137138Y272636D01*
X135070Y272224D01*
X133317Y271053D01*
X132145Y269300D01*
X131734Y267232D01*
X132145Y265164D01*
X132485Y264656D01*
X131806Y263386D01*
X127817D01*
X123205Y267997D01*
X122992Y269068D01*
X121821Y270821D01*
X120068Y271992D01*
X118000Y272404D01*
X115932Y271992D01*
X114179Y270821D01*
X113007Y269068D01*
X112596Y267000D01*
X113007Y264932D01*
X114179Y263179D01*
X115932Y262008D01*
X117003Y261794D01*
X122899Y255899D01*
X124321Y254948D01*
X126000Y254614D01*
X164500D01*
Y253600D01*
X169000D01*
Y252600D01*
X170000D01*
Y248036D01*
X170380Y247126D01*
X170345Y247068D01*
X170000Y246635D01*
Y241600D01*
Y237100D01*
X170437D01*
X171500Y236600D01*
X171500Y235830D01*
Y227600D01*
Y222600D01*
Y212600D01*
X170659Y211678D01*
X165911D01*
X164510Y213080D01*
X165036Y214350D01*
X168250D01*
Y223600D01*
X165000D01*
Y224600D01*
X164000D01*
Y234850D01*
X161750D01*
Y232959D01*
X160577Y232473D01*
X158566Y234484D01*
X158500Y234528D01*
Y236600D01*
X150892D01*
X150500Y236678D01*
X150500Y236678D01*
X146610D01*
X145466Y237442D01*
X143399Y237853D01*
X141331Y237442D01*
X139578Y236271D01*
X138406Y234517D01*
X138379Y234380D01*
X138232Y234160D01*
X137921Y232600D01*
X138232Y231039D01*
X138294Y230946D01*
X138406Y230382D01*
X138779Y229823D01*
X138007Y228668D01*
X137596Y226600D01*
X138007Y224532D01*
X138630Y223599D01*
X138007Y222668D01*
X137596Y220599D01*
X138007Y218532D01*
X139179Y216779D01*
X140932Y215607D01*
X143000Y215196D01*
X143518Y215299D01*
X144500Y214493D01*
Y213600D01*
X150000D01*
Y217100D01*
X152000D01*
Y213600D01*
X154367D01*
X155124Y212620D01*
X155434Y211059D01*
X156318Y209736D01*
X158684Y207370D01*
X158158Y206100D01*
X149152D01*
X149152Y206100D01*
X148500Y206100D01*
X147848Y205100D01*
X147230Y205100D01*
X145000D01*
Y200600D01*
Y196100D01*
X147848Y196100D01*
X148500Y195100D01*
Y194370D01*
X147848Y193100D01*
X145000D01*
Y188600D01*
X145005Y188338D01*
X145041Y187883D01*
X145073Y187689D01*
X145115Y187518D01*
X145165Y187370D01*
X145225Y187245D01*
X145293Y187142D01*
X145371Y187062D01*
X145458Y187005D01*
X145000D01*
Y184100D01*
X145557D01*
X145971Y182019D01*
X147352Y179952D01*
X147365Y179944D01*
X147365Y169998D01*
X146467Y169100D01*
X145000D01*
Y168993D01*
X145009Y168627D01*
X145037Y168294D01*
X145084Y168000D01*
X145149Y167745D01*
X145232Y167529D01*
X145335Y167353D01*
X145456Y167215D01*
X145595Y167117D01*
X145753Y167059D01*
X145930Y167039D01*
X145000D01*
Y166039D01*
X145341Y166039D01*
X145276Y165997D01*
X145218Y165932D01*
X145167Y165845D01*
X145123Y165735D01*
X145085Y165602D01*
X145054Y165447D01*
X145031Y165269D01*
X145003Y164846D01*
X145000Y164611D01*
Y164600D01*
Y160100D01*
X147365D01*
X147365Y153912D01*
X146095Y153000D01*
X136356D01*
X136356Y174463D01*
X134588D01*
Y185000D01*
X134239Y186756D01*
X133244Y188244D01*
X123244Y198244D01*
X121756Y199239D01*
X120000Y199588D01*
X114500D01*
Y215050D01*
X111556D01*
Y223284D01*
X113636Y225364D01*
X114678Y226722D01*
X115333Y228303D01*
X115556Y230000D01*
X115333Y231697D01*
X115045Y232391D01*
X116122Y233111D01*
X120922Y228311D01*
Y227436D01*
X120007Y226068D01*
X119596Y224000D01*
X120007Y221932D01*
X121179Y220179D01*
X122932Y219007D01*
X125000Y218596D01*
X127068Y219007D01*
X128821Y220179D01*
X129993Y221932D01*
X130404Y224000D01*
X129993Y226068D01*
X129078Y227436D01*
Y230000D01*
X128768Y231561D01*
X127884Y232884D01*
X127884Y232884D01*
X124019Y236748D01*
X124505Y237922D01*
X128564D01*
X129932Y237008D01*
X132000Y236596D01*
X134068Y237008D01*
X135821Y238179D01*
X136993Y239932D01*
X137404Y242000D01*
X136993Y244068D01*
X135821Y245821D01*
X134068Y246992D01*
X132000Y247404D01*
X129932Y246992D01*
X128564Y246078D01*
X122689D01*
X120884Y247884D01*
X119561Y248768D01*
X118000Y249078D01*
X118000Y249078D01*
X101000D01*
X101000Y249078D01*
X99439Y248768D01*
X98116Y247884D01*
X98116Y247884D01*
X96139Y245907D01*
X39861D01*
X31078Y254689D01*
Y256828D01*
X30768Y258389D01*
X29884Y259712D01*
X29884Y259712D01*
X26712Y262884D01*
X25389Y263768D01*
X23828Y264078D01*
X23828Y264078D01*
X16000D01*
X14439Y263768D01*
X13116Y262884D01*
X13116Y262884D01*
X8116Y257884D01*
X7232Y256561D01*
X7121Y256000D01*
X5500D01*
Y244000D01*
X20011D01*
X23838Y240173D01*
X23352Y239000D01*
X5500D01*
Y227000D01*
X7121D01*
X7232Y226439D01*
X8116Y225116D01*
X16116Y217116D01*
X16116Y217116D01*
X17439Y216232D01*
X19000Y215922D01*
X19000Y215922D01*
X20591D01*
X21500Y215050D01*
Y212638D01*
X13050D01*
X11294Y212289D01*
X9806Y211294D01*
X4756Y206244D01*
X3761Y204756D01*
X3412Y203000D01*
Y149000D01*
X3761Y147244D01*
X4756Y145756D01*
X5000Y145511D01*
Y140500D01*
Y131692D01*
X3772Y130897D01*
X3437Y130993D01*
X3117Y131129D01*
X199Y131730D01*
X-63Y131732D01*
X-320Y131782D01*
X-1345Y131780D01*
X-1413Y131807D01*
X-2393Y132706D01*
X-2470Y132884D01*
Y291488D01*
X-2097Y292388D01*
X-1408Y293078D01*
X-507Y293451D01*
X262633D01*
X263534Y293078D01*
D02*
G37*
G36*
X166220Y216380D02*
X166215Y216369D01*
X166210Y216333D01*
X166207Y216273D01*
X166194Y215184D01*
X164195D01*
X164193Y215416D01*
X164145Y216103D01*
X164124Y216213D01*
X164098Y216299D01*
X164069Y216361D01*
X164035Y216398D01*
X163998Y216411D01*
X166220Y216380D01*
D02*
G37*
G36*
X176043Y205600D02*
X176023Y205790D01*
X175962Y205960D01*
X175860Y206110D01*
X175718Y206240D01*
X175535Y206350D01*
X175312Y206440D01*
X175048Y206510D01*
X174743Y206560D01*
X174398Y206590D01*
X174012Y206600D01*
Y208600D01*
X174398Y208610D01*
X174743Y208640D01*
X175048Y208690D01*
X175312Y208760D01*
X175535Y208850D01*
X175718Y208960D01*
X175860Y209090D01*
X175962Y209240D01*
X176023Y209410D01*
X176043Y209600D01*
Y205600D01*
D02*
G37*
G36*
X246561Y198600D02*
X246541Y198790D01*
X246480Y198960D01*
X246378Y199110D01*
X246236Y199240D01*
X246053Y199350D01*
X245830Y199440D01*
X245566Y199510D01*
X245261Y199560D01*
X244916Y199590D01*
X244531Y199600D01*
Y201600D01*
X244916Y201610D01*
X245261Y201640D01*
X245566Y201690D01*
X245830Y201760D01*
X246053Y201850D01*
X246236Y201960D01*
X246378Y202090D01*
X246480Y202240D01*
X246541Y202410D01*
X246561Y202600D01*
Y198600D01*
D02*
G37*
G36*
X72422Y214652D02*
X71179Y213821D01*
X70008Y212068D01*
X69596Y210000D01*
X70008Y207932D01*
X71179Y206179D01*
X72932Y205007D01*
X73646Y204866D01*
X78427Y200085D01*
X78009Y198707D01*
X76932Y198493D01*
X75179Y197321D01*
X74008Y195568D01*
X73596Y193500D01*
X74008Y191432D01*
X75179Y189679D01*
X75574Y189415D01*
X75306Y188067D01*
X74932Y187992D01*
X73179Y186821D01*
X72007Y185068D01*
X71596Y183000D01*
X72007Y180932D01*
X72412Y180327D01*
Y178900D01*
X72761Y177144D01*
X73756Y175656D01*
X79461Y169950D01*
X67756Y158244D01*
X67119Y157291D01*
X65653Y157200D01*
X65538Y157371D01*
X63785Y158542D01*
X61717Y158954D01*
X59649Y158542D01*
X58858Y158014D01*
X57588Y158693D01*
Y171327D01*
X57993Y171932D01*
X58404Y174000D01*
X57993Y176068D01*
X56821Y177821D01*
X55068Y178993D01*
X54354Y179135D01*
X47594Y185894D01*
X46106Y186889D01*
X44350Y187238D01*
X40500D01*
Y190762D01*
X50642D01*
X52257Y189683D01*
X54325Y189271D01*
X56393Y189683D01*
X56407Y189692D01*
X56756Y189761D01*
X58244Y190756D01*
X59239Y192244D01*
X59308Y192593D01*
X59317Y192607D01*
X59729Y194675D01*
X59317Y196743D01*
X58146Y198496D01*
X56393Y199667D01*
X54325Y200079D01*
X53618Y199938D01*
X40500D01*
Y203462D01*
X46617D01*
X48373Y203811D01*
X49861Y204806D01*
X50814Y205758D01*
X52068Y206007D01*
X53821Y207179D01*
X54992Y208932D01*
X55404Y211000D01*
X54992Y213068D01*
X53934Y214652D01*
X54286Y215922D01*
X72037D01*
X72422Y214652D01*
D02*
G37*
G36*
X154707Y187893D02*
X154562Y187736D01*
X154444Y187583D01*
X154351Y187432D01*
X154284Y187283D01*
X154243Y187138D01*
X154228Y186995D01*
X154238Y186855D01*
X154275Y186717D01*
X154338Y186582D01*
X154426Y186450D01*
X154056Y186579D01*
X154048Y186577D01*
X153843Y186510D01*
X153624Y186413D01*
X153392Y186286D01*
X153146Y186129D01*
X152885Y185942D01*
X152324Y185477D01*
X152023Y185200D01*
X151707Y184893D01*
X150293Y186307D01*
X150600Y186623D01*
X151341Y187485D01*
X151364Y187517D01*
X151083Y187614D01*
X151226Y187659D01*
X151382Y187727D01*
X151550Y187817D01*
X151591Y187843D01*
X151686Y187992D01*
X151813Y188224D01*
X151910Y188443D01*
X151977Y188648D01*
X152014Y188839D01*
X152399Y188455D01*
X152815Y188834D01*
X153068Y189083D01*
X154707Y187893D01*
D02*
G37*
G36*
X162269Y183751D02*
X162085Y183565D01*
X161388Y182766D01*
X161339Y182686D01*
X161310Y182620D01*
X161299Y182570D01*
X159944Y184697D01*
X160009Y184678D01*
X160084Y184677D01*
X160167Y184694D01*
X160259Y184729D01*
X160360Y184781D01*
X160469Y184851D01*
X160588Y184938D01*
X160715Y185043D01*
X160996Y185307D01*
X162269Y183751D01*
D02*
G37*
G36*
X154675Y168715D02*
X154756Y167786D01*
X154804Y167558D01*
X154863Y167372D01*
X154933Y167227D01*
X155014Y167123D01*
X155105Y167061D01*
X155207Y167039D01*
X151531Y167069D01*
X151557Y167090D01*
X151581Y167151D01*
X151601Y167253D01*
X151620Y167395D01*
X151647Y167803D01*
X151670Y169107D01*
X154670D01*
X154675Y168715D01*
D02*
G37*
G36*
X176977Y166870D02*
X176891Y167008D01*
X176788Y167133D01*
X176668Y167242D01*
X176531Y167337D01*
X176377Y167417D01*
X176207Y167483D01*
X176019Y167534D01*
X175814Y167571D01*
X175593Y167593D01*
X175355Y167600D01*
X176027Y169600D01*
X176265Y169604D01*
X176910Y169657D01*
X177102Y169689D01*
X177451Y169775D01*
X177609Y169829D01*
X177755Y169890D01*
X177889Y169958D01*
X176977Y166870D01*
D02*
G37*
G36*
X156459Y166410D02*
X156520Y166240D01*
X156622Y166090D01*
X156764Y165960D01*
X156947Y165850D01*
X157170Y165760D01*
X157434Y165690D01*
X157739Y165640D01*
X158084Y165610D01*
X158469Y165600D01*
Y163600D01*
X158084Y163590D01*
X157739Y163560D01*
X157434Y163510D01*
X157170Y163440D01*
X156947Y163350D01*
X156764Y163240D01*
X156622Y163110D01*
X156520Y162960D01*
X156459Y162790D01*
X156439Y162600D01*
Y163566D01*
X155060Y163539D01*
Y165661D01*
X155102Y165650D01*
X155202Y165639D01*
X155579Y165622D01*
X156439Y165615D01*
Y166600D01*
X156459Y166410D01*
D02*
G37*
G36*
X21500Y187929D02*
Y175650D01*
X22500D01*
Y170950D01*
X39500D01*
Y175650D01*
X40500D01*
Y178062D01*
X42449D01*
X47866Y172646D01*
X48007Y171932D01*
X48412Y171327D01*
Y153000D01*
X43205D01*
X42993Y154068D01*
X41821Y155821D01*
X40068Y156993D01*
X38000Y157404D01*
X35932Y156993D01*
X34179Y155821D01*
X33008Y154068D01*
X32795Y153000D01*
X32500D01*
Y152115D01*
X31230Y151159D01*
X30255Y151353D01*
X30213Y151362D01*
X30212Y151362D01*
X30000Y151404D01*
X29000Y151500D01*
X29000Y151500D01*
X27290D01*
X27239Y151756D01*
X26244Y153244D01*
X19588Y159901D01*
Y187917D01*
X20363Y188537D01*
X21500Y187929D01*
D02*
G37*
G36*
X120501Y143862D02*
X120570Y142736D01*
X120589Y142677D01*
X120610Y142642D01*
X117390D01*
X117411Y142677D01*
X117430Y142736D01*
X117446Y142821D01*
X117460Y142931D01*
X117482Y143228D01*
X117500Y144124D01*
X120500D01*
X120501Y143862D01*
D02*
G37*
G36*
X142810Y144010D02*
X142640Y143951D01*
X142490Y143850D01*
X142360Y143710D01*
X142250Y143531D01*
X142160Y143310D01*
X142090Y143050D01*
X142040Y142751D01*
X142010Y142410D01*
X142000Y142030D01*
X140000D01*
X139990Y142410D01*
X139960Y142751D01*
X139910Y143050D01*
X139840Y143310D01*
X139750Y143531D01*
X139640Y143710D01*
X139510Y143850D01*
X139360Y143951D01*
X139190Y144010D01*
X139000Y144031D01*
X143000D01*
X142810Y144010D01*
D02*
G37*
G36*
X95500Y162950D02*
X109802D01*
X110288Y161777D01*
X105756Y157244D01*
X105182Y156385D01*
X104215Y155739D01*
X103044Y153986D01*
X102632Y151918D01*
X103044Y149850D01*
X103500Y149168D01*
Y141000D01*
X113596D01*
X113596Y141000D01*
X114008Y138932D01*
X115179Y137179D01*
X116932Y136007D01*
X119000Y135596D01*
X121068Y136007D01*
X122821Y137179D01*
X123993Y138932D01*
X124347Y140716D01*
X125500Y141000D01*
Y141000D01*
X135268D01*
X135596Y140600D01*
X136007Y138532D01*
X137179Y136779D01*
X137445Y136601D01*
X137570Y135337D01*
X137116Y134884D01*
X136232Y133561D01*
X135922Y132000D01*
X135922Y132000D01*
Y103208D01*
X117792Y85078D01*
X69878D01*
X69592Y85506D01*
X67525Y86887D01*
X65086Y87373D01*
X62648Y86887D01*
X60581Y85506D01*
X59199Y83439D01*
X58714Y81000D01*
X59199Y78561D01*
X60581Y76494D01*
X60799Y76348D01*
X60413Y75078D01*
X34565D01*
X33005Y74768D01*
X31681Y73884D01*
X31681Y73884D01*
X18706Y60909D01*
X17822Y59586D01*
X17512Y58025D01*
X16391Y57590D01*
X12740D01*
Y54588D01*
X11339D01*
X11358Y54562D01*
X11442Y54527D01*
X4558D01*
X4642Y54562D01*
X4661Y54588D01*
X-2470D01*
Y103782D01*
X-2395Y103955D01*
X-1345Y104885D01*
X-320Y104883D01*
X-63Y104934D01*
X199Y104935D01*
X3117Y105536D01*
X3437Y105672D01*
X3772Y105768D01*
X6418Y107135D01*
X6691Y107352D01*
X6987Y107535D01*
X9166Y109566D01*
X9369Y109849D01*
X9605Y110105D01*
X11154Y112649D01*
X11274Y112976D01*
X11431Y113287D01*
X12236Y116155D01*
X12263Y116502D01*
X12331Y116843D01*
Y119822D01*
X12263Y120163D01*
X12236Y120511D01*
X11431Y123379D01*
X11274Y123689D01*
X11154Y124016D01*
X9605Y126560D01*
X9369Y126816D01*
X9166Y127099D01*
X6987Y129130D01*
X7473Y130313D01*
X7611Y130500D01*
X15730D01*
X17000Y130500D01*
Y130500D01*
X17000D01*
Y130500D01*
X29000D01*
Y130500D01*
X30270Y131142D01*
X31326Y130932D01*
X33394Y131343D01*
X35147Y132514D01*
X36319Y134267D01*
X36730Y136335D01*
X36319Y138403D01*
X35432Y139730D01*
X35997Y141000D01*
X53500D01*
Y142801D01*
X54379Y143245D01*
X55500Y142496D01*
Y141000D01*
X75970D01*
X78000Y140596D01*
X80068Y141007D01*
X81821Y142179D01*
X82992Y143932D01*
X83404Y146000D01*
X82992Y148068D01*
X81821Y149821D01*
X80068Y150992D01*
X78000Y151404D01*
X77482Y151301D01*
X76805Y151856D01*
X76500Y153000D01*
X76683Y154194D01*
X87851Y165362D01*
X95500D01*
Y162950D01*
D02*
G37*
G36*
X229977Y142001D02*
X230035Y141843D01*
X230133Y141704D01*
X230270Y141583D01*
X230446Y141482D01*
X230662Y141398D01*
X230916Y141333D01*
X231210Y141287D01*
X231542Y141259D01*
X231914Y141250D01*
Y139250D01*
X231542Y139241D01*
X231210Y139213D01*
X230916Y139167D01*
X230662Y139102D01*
X230446Y139018D01*
X230270Y138916D01*
X230133Y138796D01*
X230035Y138657D01*
X229977Y138499D01*
X229957Y138323D01*
Y142177D01*
X229977Y142001D01*
D02*
G37*
G36*
X20031Y134000D02*
X20010Y134190D01*
X19950Y134360D01*
X19850Y134510D01*
X19711Y134640D01*
X19531Y134750D01*
X19310Y134840D01*
X19051Y134910D01*
X18750Y134960D01*
X18411Y134990D01*
X18031Y135000D01*
Y137000D01*
X18411Y137010D01*
X18750Y137040D01*
X19051Y137090D01*
X19310Y137160D01*
X19531Y137250D01*
X19711Y137360D01*
X19850Y137490D01*
X19950Y137640D01*
X20010Y137810D01*
X20031Y138000D01*
Y134000D01*
D02*
G37*
G36*
X13959Y137810D02*
X14020Y137640D01*
X14122Y137490D01*
X14264Y137360D01*
X14447Y137250D01*
X14670Y137160D01*
X14934Y137090D01*
X15239Y137040D01*
X15584Y137010D01*
X15970Y137000D01*
Y135000D01*
X15584Y134990D01*
X15239Y134960D01*
X14934Y134910D01*
X14670Y134840D01*
X14447Y134750D01*
X14264Y134640D01*
X14122Y134510D01*
X14020Y134360D01*
X13959Y134190D01*
X13939Y134000D01*
Y138000D01*
X13959Y137810D01*
D02*
G37*
G36*
X205040Y130226D02*
X204932Y130122D01*
X204749Y129972D01*
X204675Y129927D01*
X204612Y129902D01*
X204561Y129896D01*
X204521Y129910D01*
X204492Y129943D01*
X204475Y129997D01*
X204470Y130070D01*
X201742Y130039D01*
X201811Y130054D01*
X201903Y130098D01*
X202018Y130170D01*
X202156Y130272D01*
X202501Y130561D01*
X203193Y131210D01*
X203470Y131484D01*
X205040Y130226D01*
D02*
G37*
G36*
X204485Y129030D02*
X204531Y128940D01*
X204607Y128860D01*
X204714Y128791D01*
X204852Y128733D01*
X205021Y128685D01*
X205219Y128648D01*
X205449Y128621D01*
X205709Y128605D01*
X206000Y128600D01*
Y126600D01*
X205709Y126595D01*
X205219Y126552D01*
X205021Y126515D01*
X204852Y126467D01*
X204714Y126409D01*
X204607Y126340D01*
X204531Y126260D01*
X204485Y126170D01*
X204470Y126069D01*
Y129130D01*
X204485Y129030D01*
D02*
G37*
G36*
X208981Y121295D02*
X209500Y120894D01*
Y118600D01*
X214000D01*
Y117600D01*
X215000D01*
Y117600D01*
X215000D01*
X215010Y117282D01*
X215042Y116979D01*
X215094Y116693D01*
X215167Y116422D01*
X215260Y116167D01*
X215375Y115928D01*
X215510Y115704D01*
X215667Y115497D01*
X215844Y115305D01*
X216042Y115129D01*
X215777D01*
X215640Y115080D01*
X215490Y114978D01*
X215360Y114836D01*
X215250Y114653D01*
X215160Y114430D01*
X215090Y114166D01*
X215040Y113861D01*
X215010Y113516D01*
X215000Y113131D01*
X215000D01*
Y113100D01*
X217932D01*
X218756Y112755D01*
X219221Y112129D01*
X219613Y110161D01*
X220994Y108094D01*
X223061Y106713D01*
X225500Y106228D01*
X226003Y106328D01*
X227274Y105326D01*
X227302Y104670D01*
X214057Y91425D01*
X213070Y92234D01*
X213768Y93278D01*
X214078Y94839D01*
X215307Y95000D01*
X215500D01*
Y107000D01*
X204500D01*
X204500Y106000D01*
X201000D01*
Y101000D01*
Y96000D01*
X201444D01*
X201829Y94730D01*
X201494Y94506D01*
X200113Y92439D01*
X199627Y90000D01*
X200113Y87561D01*
X201494Y85494D01*
X203561Y84113D01*
X204719Y83882D01*
X205137Y82504D01*
X183706Y61074D01*
X182822Y59751D01*
X182512Y58190D01*
X181502Y57590D01*
X178277D01*
X177891Y58060D01*
X177405Y60499D01*
X176024Y62566D01*
X173957Y63948D01*
X171518Y64433D01*
X169079Y63948D01*
X167012Y62566D01*
X165631Y60499D01*
X165146Y58060D01*
X164759Y57590D01*
X163314D01*
X162928Y58060D01*
X162443Y60499D01*
X161061Y62566D01*
X158994Y63948D01*
X156555Y64433D01*
X154117Y63948D01*
X152049Y62566D01*
X150668Y60499D01*
X150183Y58060D01*
X149796Y57590D01*
X148351D01*
X147965Y58060D01*
X147480Y60499D01*
X146098Y62566D01*
X144031Y63948D01*
X141592Y64433D01*
X139154Y63948D01*
X137086Y62566D01*
X135705Y60499D01*
X135220Y58060D01*
X134833Y57590D01*
X133388D01*
X133002Y58060D01*
X132517Y60499D01*
X131136Y62566D01*
X129068Y63948D01*
X126629Y64433D01*
X124191Y63948D01*
X122123Y62566D01*
X120742Y60499D01*
X120257Y58060D01*
X119871Y57590D01*
X118426D01*
X118039Y58060D01*
X117554Y60499D01*
X116173Y62566D01*
X114105Y63948D01*
X111667Y64433D01*
X109228Y63948D01*
X107161Y62566D01*
X105779Y60499D01*
X105294Y58060D01*
X104908Y57590D01*
X103463D01*
X103076Y58060D01*
X102591Y60499D01*
X101210Y62566D01*
X99142Y63948D01*
X96704Y64433D01*
X94265Y63948D01*
X92198Y62566D01*
X90816Y60499D01*
X90331Y58060D01*
X89945Y57590D01*
X88500D01*
X88113Y58060D01*
X87628Y60499D01*
X86247Y62566D01*
X84179Y63948D01*
X81741Y64433D01*
X79302Y63948D01*
X77235Y62566D01*
X75853Y60499D01*
X75368Y58060D01*
X74982Y57590D01*
X72088D01*
X71702Y58060D01*
X71217Y60499D01*
X69835Y62566D01*
X67768Y63948D01*
X65329Y64433D01*
X62891Y63948D01*
X60823Y62566D01*
X59442Y60499D01*
X59220Y59382D01*
X57925D01*
X57702Y60499D01*
X56321Y62566D01*
X54254Y63948D01*
X51815Y64433D01*
X49376Y63948D01*
X47309Y62566D01*
X45928Y60499D01*
X45443Y58060D01*
X45056Y57590D01*
X28582D01*
X28096Y58763D01*
X36254Y66922D01*
X120400D01*
X120400Y66922D01*
X121961Y67232D01*
X123284Y68116D01*
X149884Y94716D01*
X149884Y94716D01*
X150768Y96039D01*
X151078Y97600D01*
Y104100D01*
X153000D01*
Y105863D01*
X152925Y105958D01*
X152783Y106070D01*
X152623Y106137D01*
X152443Y106161D01*
X153000Y106157D01*
Y108600D01*
X154000D01*
Y109600D01*
X158500D01*
Y113100D01*
X159500Y113100D01*
Y113948D01*
X160500Y114600D01*
X163185D01*
X163230Y114586D01*
X163367Y114600D01*
X163388D01*
X163530Y114572D01*
X163673Y114600D01*
X174403D01*
X175185Y113469D01*
X174884Y112600D01*
X170000D01*
Y104600D01*
Y96600D01*
X174848D01*
X175500Y95600D01*
Y95370D01*
X174848Y94100D01*
X172000D01*
Y89600D01*
Y85100D01*
X175500D01*
X175500Y84100D01*
X186500D01*
Y91707D01*
X186511Y91742D01*
X186500Y91861D01*
Y91927D01*
X186528Y92070D01*
X186500Y92212D01*
Y95100D01*
X187563Y95600D01*
X192500D01*
Y107804D01*
X192656Y107988D01*
X194634Y109966D01*
X195518Y111289D01*
X195828Y112850D01*
X195828Y112850D01*
Y120511D01*
X196943Y121482D01*
X197500Y121312D01*
Y118600D01*
X202000D01*
X206500D01*
Y121327D01*
X208230Y121671D01*
X208981Y121295D01*
D02*
G37*
G36*
X163530Y117630D02*
X163505Y117713D01*
X163430Y117787D01*
X163305Y117852D01*
X163130Y117908D01*
X162905Y117956D01*
X162630Y117995D01*
X161930Y118047D01*
X161030Y118064D01*
Y120564D01*
X161505Y120577D01*
X161930Y120614D01*
X162305Y120677D01*
X162630Y120764D01*
X162905Y120877D01*
X163130Y121014D01*
X163305Y121177D01*
X163430Y121364D01*
X163505Y121577D01*
X163530Y121814D01*
Y117630D01*
D02*
G37*
G36*
X156495Y120974D02*
X156569Y120888D01*
X156694Y120812D01*
X156869Y120746D01*
X157094Y120691D01*
X157369Y120645D01*
X157695Y120610D01*
X158495Y120569D01*
X158969Y120564D01*
Y118064D01*
X158495Y118052D01*
X158069Y118014D01*
X157695Y117952D01*
X157369Y117864D01*
X157094Y117752D01*
X156869Y117614D01*
X156694Y117452D01*
X156569Y117264D01*
X156495Y117052D01*
X156469Y116814D01*
Y121069D01*
X156495Y120974D01*
D02*
G37*
G36*
X190884Y110569D02*
X190485Y110156D01*
X189856Y109417D01*
X189627Y109091D01*
X189454Y108794D01*
X189338Y108525D01*
X189279Y108286D01*
X189275Y108075D01*
X189329Y107894D01*
X189439Y107741D01*
X186641Y110539D01*
X186794Y110429D01*
X186976Y110375D01*
X187186Y110378D01*
X187426Y110438D01*
X187694Y110554D01*
X187991Y110727D01*
X188318Y110956D01*
X188673Y111242D01*
X189470Y111983D01*
X190884Y110569D01*
D02*
G37*
G36*
X183263Y98634D02*
X183050Y98557D01*
X182862Y98430D01*
X182700Y98252D01*
X182563Y98024D01*
X182450Y97746D01*
X182362Y97418D01*
X182300Y97039D01*
X182262Y96610D01*
X182250Y96130D01*
X179750D01*
X179738Y96605D01*
X179701Y97030D01*
X179640Y97405D01*
X179555Y97730D01*
X179445Y98005D01*
X179311Y98230D01*
X179152Y98405D01*
X178969Y98530D01*
X178762Y98605D01*
X178531Y98630D01*
X183500Y98661D01*
X183263Y98634D01*
D02*
G37*
G36*
X182262Y94094D02*
X182299Y93670D01*
X182360Y93294D01*
X182445Y92970D01*
X182555Y92695D01*
X182689Y92470D01*
X182848Y92295D01*
X183030Y92170D01*
X183238Y92094D01*
X183470Y92070D01*
X178531D01*
X178762Y92094D01*
X178969Y92170D01*
X179152Y92295D01*
X179311Y92470D01*
X179445Y92695D01*
X179555Y92970D01*
X179640Y93294D01*
X179701Y93670D01*
X179738Y94094D01*
X179750Y94570D01*
X182250D01*
X182262Y94094D01*
D02*
G37*
G36*
X255140Y107535D02*
X255436Y107352D01*
X255708Y107135D01*
X258354Y105768D01*
X258689Y105672D01*
X259010Y105536D01*
X261927Y104935D01*
X262189Y104934D01*
X262447Y104883D01*
X263471Y104885D01*
X264521Y103955D01*
X264597Y103782D01*
Y54588D01*
X251339D01*
X251358Y54562D01*
X251442Y54527D01*
X244558D01*
X244642Y54562D01*
X244661Y54588D01*
X240440D01*
Y57590D01*
X235668D01*
Y61901D01*
X251134Y77366D01*
X251134Y77366D01*
X252018Y78689D01*
X252328Y80250D01*
Y108419D01*
X253598Y108972D01*
X255140Y107535D01*
D02*
G37*
%LPC*%
G36*
X82750Y267623D02*
X80311Y267137D01*
X78244Y265756D01*
X76863Y263689D01*
X76378Y261250D01*
X76863Y258811D01*
X78244Y256744D01*
X80311Y255363D01*
X82750Y254877D01*
X85189Y255363D01*
X87256Y256744D01*
X88637Y258811D01*
X89122Y261250D01*
X88637Y263689D01*
X87256Y265756D01*
X85189Y267137D01*
X82750Y267623D01*
D02*
G37*
G36*
X168000Y251600D02*
X164500D01*
Y248100D01*
X168000D01*
Y251600D01*
D02*
G37*
G36*
X48300Y277125D02*
X44515Y276627D01*
X40987Y275166D01*
X37959Y272841D01*
X35634Y269813D01*
X34173Y266285D01*
X33675Y262500D01*
X34173Y258715D01*
X35634Y255187D01*
X37959Y252159D01*
X40987Y249834D01*
X44515Y248373D01*
X48300Y247875D01*
X52085Y248373D01*
X55613Y249834D01*
X58642Y252159D01*
X60966Y255187D01*
X62427Y258715D01*
X62925Y262500D01*
X62427Y266285D01*
X60966Y269813D01*
X58642Y272841D01*
X55613Y275166D01*
X52085Y276627D01*
X48300Y277125D01*
D02*
G37*
G36*
X168000Y246100D02*
X164500D01*
Y245093D01*
X157097D01*
X156999Y241464D01*
X159464Y239000D01*
X164500D01*
Y237100D01*
X168000D01*
Y241600D01*
Y246100D01*
D02*
G37*
G36*
X239500Y236100D02*
X236000D01*
Y232600D01*
X239500D01*
Y236100D01*
D02*
G37*
G36*
X168250Y234850D02*
X166000D01*
Y225600D01*
X168250D01*
Y234850D01*
D02*
G37*
G36*
X143000Y205100D02*
X139500D01*
Y201600D01*
X139530D01*
X139916Y201610D01*
X140261Y201640D01*
X140321Y201650D01*
Y202875D01*
X140573Y202633D01*
X140830Y202416D01*
X141091Y202225D01*
X141349Y202063D01*
X141378Y202090D01*
X141480Y202240D01*
X141541Y202410D01*
X141561Y202600D01*
Y201953D01*
X141626Y201919D01*
X141901Y201804D01*
X142179Y201715D01*
X142463Y201651D01*
X142750Y201613D01*
X143000Y201602D01*
Y205100D01*
D02*
G37*
G36*
X139530Y199600D02*
X139500D01*
Y196100D01*
X143000D01*
Y199598D01*
X142750Y199587D01*
X142463Y199549D01*
X142179Y199485D01*
X141901Y199396D01*
X141626Y199281D01*
X141561Y199247D01*
Y198600D01*
X141541Y198790D01*
X141480Y198960D01*
X141378Y199110D01*
X141349Y199137D01*
X141091Y198975D01*
X140830Y198784D01*
X140573Y198567D01*
X140321Y198325D01*
Y199550D01*
X140261Y199560D01*
X139916Y199590D01*
X139530Y199600D01*
D02*
G37*
G36*
X143000Y193100D02*
X139500D01*
Y189600D01*
X143000D01*
Y193100D01*
D02*
G37*
G36*
X253500Y189600D02*
X250000D01*
Y186100D01*
X253500D01*
Y189600D01*
D02*
G37*
G36*
X142905Y187600D02*
X139500D01*
Y184100D01*
X143000D01*
Y187005D01*
X142542D01*
X142629Y187062D01*
X142707Y187142D01*
X142775Y187245D01*
X142835Y187370D01*
X142885Y187518D01*
X142905Y187600D01*
D02*
G37*
G36*
X143000Y169100D02*
X139500D01*
Y165600D01*
X142915D01*
X142915Y165602D01*
X142877Y165735D01*
X142833Y165845D01*
X142782Y165932D01*
X142724Y165997D01*
X142659Y166039D01*
X143000Y166039D01*
Y167039D01*
X142070D01*
X142247Y167059D01*
X142405Y167117D01*
X142544Y167215D01*
X142665Y167353D01*
X142767Y167529D01*
X142851Y167745D01*
X142916Y168000D01*
X142963Y168294D01*
X142991Y168627D01*
X143000Y169000D01*
X143000D01*
Y169100D01*
D02*
G37*
G36*
Y163600D02*
X139500D01*
Y160100D01*
X143000D01*
Y163600D01*
D02*
G37*
G36*
X39500Y168950D02*
X32000D01*
Y163950D01*
X39500D01*
Y168950D01*
D02*
G37*
G36*
X30000D02*
X22500D01*
Y163950D01*
X30000D01*
Y168950D01*
D02*
G37*
G36*
X212881Y116600D02*
X209500D01*
Y113100D01*
X213000D01*
Y113132D01*
X212990Y113516D01*
X212960Y113861D01*
X212910Y114166D01*
X212840Y114430D01*
X212750Y114653D01*
X212640Y114836D01*
X212510Y114978D01*
X212360Y115080D01*
X212223Y115129D01*
X211958D01*
X212156Y115305D01*
X212333Y115497D01*
X212490Y115704D01*
X212625Y115928D01*
X212740Y116167D01*
X212833Y116422D01*
X212881Y116600D01*
D02*
G37*
G36*
X206500Y116600D02*
X203119D01*
X203167Y116422D01*
X203260Y116167D01*
X203375Y115928D01*
X203510Y115704D01*
X203667Y115497D01*
X203844Y115305D01*
X204042Y115129D01*
X203777D01*
X203640Y115080D01*
X203490Y114978D01*
X203360Y114836D01*
X203250Y114653D01*
X203160Y114430D01*
X203090Y114166D01*
X203040Y113861D01*
X203010Y113516D01*
X203000Y113131D01*
X203000D01*
Y113100D01*
X206500D01*
Y116600D01*
D02*
G37*
G36*
X200881D02*
X197500D01*
Y113100D01*
X201000D01*
Y113131D01*
X200990Y113516D01*
X200960Y113861D01*
X200910Y114166D01*
X200840Y114430D01*
X200750Y114653D01*
X200640Y114836D01*
X200510Y114978D01*
X200360Y115080D01*
X200224Y115129D01*
X199958D01*
X200156Y115305D01*
X200333Y115497D01*
X200490Y115704D01*
X200625Y115928D01*
X200740Y116167D01*
X200833Y116422D01*
X200881Y116600D01*
D02*
G37*
G36*
X168000Y112600D02*
X161500D01*
Y105600D01*
X168000D01*
Y112600D01*
D02*
G37*
G36*
X158500Y107600D02*
X155000D01*
Y106142D01*
X156469Y106131D01*
X156359Y106109D01*
X156260Y106043D01*
X156173Y105933D01*
X156098Y105779D01*
X156034Y105582D01*
X155981Y105340D01*
X155941Y105055D01*
X155912Y104725D01*
X155893Y104100D01*
X158500D01*
Y107600D01*
D02*
G37*
G36*
X199000Y106000D02*
X195500D01*
Y102000D01*
X199000D01*
Y106000D01*
D02*
G37*
G36*
X168000Y103600D02*
X161500D01*
Y99638D01*
X161665Y99604D01*
X161943Y99572D01*
X162227Y99564D01*
X161500Y98836D01*
Y96600D01*
X165091D01*
X165401Y97146D01*
X165480Y96881D01*
X165574Y96619D01*
X165582Y96600D01*
X168000D01*
Y103600D01*
D02*
G37*
G36*
X199000Y100000D02*
X195500D01*
Y96000D01*
X199000D01*
Y100000D01*
D02*
G37*
G36*
X170000Y94100D02*
X166567D01*
X166500Y93975D01*
Y92717D01*
X167726Y93837D01*
X168277Y93303D01*
X169248Y92472D01*
X169667Y92174D01*
X170000Y91980D01*
Y94100D01*
D02*
G37*
G36*
X166500Y91510D02*
Y90600D01*
X167302D01*
X166509Y91501D01*
X166500Y91510D01*
D02*
G37*
G36*
X170000Y88600D02*
X169107D01*
X168561Y87729D01*
X168655Y87966D01*
X168668Y88248D01*
X168601Y88576D01*
X168591Y88600D01*
X166500D01*
Y85100D01*
X170000D01*
Y88600D01*
D02*
G37*
%LPD*%
G36*
X165091Y98630D02*
X165061Y98636D01*
X165001Y98607D01*
X164911Y98545D01*
X164790Y98449D01*
X164249Y97958D01*
X163437Y97163D01*
X161669Y98931D01*
X163530Y100978D01*
X165091Y98630D01*
D02*
G37*
D10*
X164750Y99850D02*
X169000Y104100D01*
X164356Y99850D02*
X164750D01*
X162553Y98047D02*
X164356Y99850D01*
X168945Y90850D02*
X169750D01*
X171000Y89600D01*
X169000Y104100D02*
Y104600D01*
X173250Y108850D01*
X179750Y117350D02*
Y119350D01*
X173250Y110850D02*
X179750Y117350D01*
Y119350D02*
X184000Y123600D01*
X173250Y108850D02*
Y110850D01*
X162871Y96925D02*
X168945Y90850D01*
X154638Y103935D02*
X162260Y96314D01*
X154000Y108600D02*
X154638Y107962D01*
Y103935D02*
Y107962D01*
X181000Y89600D02*
X181000Y89600D01*
X181000Y89600D02*
Y101600D01*
X184000Y104600D01*
X154000Y118600D02*
X154714Y119314D01*
X164750D01*
X169000Y123564D02*
Y123600D01*
X164750Y119314D02*
X169000Y123564D01*
D11*
X155232Y147232D02*
Y149832D01*
X140000Y132000D02*
X155232Y147232D01*
Y149832D02*
X162000Y156600D01*
X27000Y253000D02*
X38172Y241828D01*
X97828D01*
X27000Y253000D02*
Y256828D01*
X23828Y260000D02*
X27000Y256828D01*
X16000Y260000D02*
X23828D01*
X234704Y248554D02*
Y251704D01*
X225751Y239601D02*
X234704Y248554D01*
Y251704D02*
X236000Y253000D01*
X246000D02*
X246094Y253094D01*
Y264408D01*
X246189Y264503D01*
X165194Y215184D02*
Y224405D01*
Y215184D02*
X165389Y214989D01*
X193000Y140250D02*
Y144486D01*
X214000Y112600D02*
Y117600D01*
X195850Y148000D02*
X196640Y148790D01*
X193000Y144486D02*
X196640Y148125D01*
X165000Y224600D02*
X165194Y224405D01*
X202000Y112600D02*
Y117600D01*
X196640Y148125D02*
Y148790D01*
Y148950D01*
X144000Y184100D02*
Y188600D01*
X150500Y216600D02*
X151000Y217100D01*
X146421Y216600D02*
X150500D01*
X143000Y213599D02*
X143421D01*
X146421Y216600D01*
X143000Y199600D02*
X144000Y200600D01*
X169000Y252600D02*
X169000Y252600D01*
X249000Y190600D02*
X254130D01*
X138000Y200600D02*
X144000D01*
X138000Y200600D02*
X138000Y200600D01*
X144000Y169000D02*
X144000Y169000D01*
Y164600D02*
X144000Y164600D01*
X144000Y164600D02*
Y169000D01*
X193307Y232014D02*
X193554Y231767D01*
X198833D02*
X199000Y231600D01*
X193554Y231767D02*
X198833D01*
X254130Y190600D02*
X254771Y189958D01*
X256820Y175018D02*
X257223Y174615D01*
X254131Y175018D02*
X254550Y174600D01*
X254131Y175018D02*
X256820D01*
X252000Y174600D02*
X254550D01*
X169000Y241600D02*
X169500Y241100D01*
Y235750D02*
Y241100D01*
Y235750D02*
X170000Y235250D01*
X235275Y231875D02*
Y235674D01*
X235000Y231600D02*
X235275Y231875D01*
Y235674D02*
X235550Y235949D01*
X178357Y168600D02*
X179008Y167948D01*
X168650Y168600D02*
X178357D01*
X224097Y128503D02*
X225000Y127600D01*
X221000Y129000D02*
X221497Y128503D01*
X224097D01*
X221000Y129000D02*
Y140250D01*
X225000Y133521D02*
X226172Y132350D01*
X230250D01*
X225000Y133521D02*
Y140250D01*
X161703Y184600D02*
X168650D01*
X159703Y182600D02*
X161703Y184600D01*
X159000Y182600D02*
X159703D01*
X168650Y176600D02*
X177696D01*
X178521Y175774D01*
X179225D01*
X162576Y172600D02*
X168650D01*
Y180600D02*
X177600D01*
X179000Y182000D01*
X176000Y160600D02*
X176000Y160600D01*
X168650Y160600D02*
X176000D01*
X201000Y127600D02*
X204333Y130933D01*
X65086Y81000D02*
X119481D01*
X140000Y101519D02*
Y132000D01*
X119481Y81000D02*
X140000Y101519D01*
X206000Y90000D02*
Y90839D01*
X210000Y94839D01*
Y101000D01*
X21590Y58025D02*
X34565Y71000D01*
X120400D02*
X147000Y97600D01*
X34565Y71000D02*
X120400D01*
X108000Y239000D02*
X116000D01*
X19000Y220000D02*
X89000D01*
X108000Y239000D01*
X11000Y228000D02*
X19000Y220000D01*
X187700Y241300D02*
X188000Y241000D01*
X179300Y241300D02*
X187700D01*
X179000Y241600D02*
X179300Y241300D01*
X116000Y239000D02*
X125000Y230000D01*
X101000Y245000D02*
X118000D01*
X121000Y242000D01*
X97828Y241828D02*
X101000Y245000D01*
X11000Y255000D02*
X16000Y260000D01*
X11000Y250000D02*
Y255000D01*
X121000Y242000D02*
X132000D01*
X125000Y224000D02*
Y230000D01*
X11000Y228000D02*
Y233000D01*
X252346Y199100D02*
X252847Y198600D01*
X250500Y199100D02*
X252346D01*
X252847Y198600D02*
X253550D01*
X229303Y192600D02*
X237350D01*
X227000Y191000D02*
X227704D01*
X229303Y192600D01*
X227000Y184000D02*
X231600Y188600D01*
X237350D01*
X227000Y180000D02*
Y184000D01*
X225000Y202818D02*
X227000Y200818D01*
X258823Y179450D02*
X261773Y176500D01*
Y153101D02*
Y176500D01*
X248884Y179450D02*
X248885Y179450D01*
X258823D01*
X246742Y179450D02*
X248884D01*
X237350Y176600D02*
X243893D01*
X246742Y179450D01*
X159989Y195588D02*
X160692D01*
X161704Y196600D02*
X168650D01*
X160692Y195588D02*
X161198Y196094D01*
X161704Y196600D01*
X177296Y192000D02*
X178000D01*
X176696Y192600D02*
X177296Y192000D01*
X168650Y192600D02*
X176696D01*
X213000Y140250D02*
Y148600D01*
Y149600D01*
X219000Y147896D02*
Y148600D01*
X217000Y145896D02*
X219000Y147896D01*
X217000Y140250D02*
Y145896D01*
X150500Y232600D02*
X151000Y232100D01*
X142000Y232600D02*
X150500D01*
X159202Y212620D02*
Y228080D01*
Y212620D02*
X164222Y207600D01*
X177000D01*
Y208950D01*
X151279Y231600D02*
X155682D01*
X159202Y228080D01*
X179000Y252600D02*
X179000Y252600D01*
X201590Y34590D02*
Y60726D01*
X237436Y96572D02*
Y134728D01*
X201590Y60726D02*
X237436Y96572D01*
X216590Y34590D02*
Y62282D01*
X243000Y88692D02*
Y146600D01*
X216590Y62282D02*
X243000Y88692D01*
X231590Y63590D02*
X248250Y80250D01*
X231590Y34590D02*
Y63590D01*
X186590Y58190D02*
X232000Y103600D01*
X186590Y34590D02*
Y58190D01*
X21590Y34590D02*
Y58025D01*
X249000Y200600D02*
X250500Y199100D01*
X237350Y200600D02*
X249000D01*
X255000Y141000D02*
X261000D01*
X256700Y164900D02*
X256737Y164937D01*
X252000Y164600D02*
X252300Y164900D01*
X256700D01*
X255000Y151000D02*
X255156Y151156D01*
X259828D01*
X261773Y153101D01*
X24665Y136335D02*
X31326D01*
X24000Y137000D02*
X24665Y136335D01*
X231914Y140250D02*
X237436Y134728D01*
X230250Y132350D02*
X232000Y130600D01*
Y103600D02*
Y130600D01*
X237350Y164600D02*
X250500D01*
X251000Y165100D01*
Y165700D01*
X229600Y156600D02*
X237350D01*
X229000Y156000D02*
X229600Y156600D01*
X221000Y213186D02*
X224664Y216850D01*
X221000Y204000D02*
Y213186D01*
X218000Y201000D02*
X221000Y204000D01*
X199000Y201000D02*
X199400D01*
X200255Y201855D01*
X201000Y202600D01*
X142000Y220035D02*
X142869D01*
X142000Y220035D02*
X142000Y220035D01*
X142869D02*
X144935Y222100D01*
X143000Y226600D02*
X143625Y227225D01*
X142000Y220035D02*
Y220599D01*
X143000Y226600D02*
Y226600D01*
X151858Y184458D02*
Y184743D01*
X151000Y185600D02*
X151858Y184743D01*
X177316Y148169D02*
Y148758D01*
X184453Y227100D02*
X197000Y214553D01*
X179000Y227100D02*
X184453D01*
X141000Y147000D02*
X141000Y147000D01*
X141000Y140600D02*
Y147000D01*
X141000Y140600D02*
X141000Y140600D01*
X141000Y140600D02*
X141000Y140600D01*
X162000Y156600D02*
X168650D01*
X165450Y147050D02*
Y148600D01*
X173850Y143450D02*
X177000D01*
X147000Y97600D02*
Y128600D01*
X165450Y148600D02*
X168650D01*
X147000Y128600D02*
X165450Y147050D01*
X11000Y136000D02*
X23000D01*
X11000D02*
X11549Y136549D01*
X23000Y136000D02*
X24000Y137000D01*
X154044Y200644D02*
X168606D01*
X168650Y200600D01*
X154000D02*
X154044Y200644D01*
X187762Y201035D02*
Y201807D01*
X181000Y201600D02*
Y208950D01*
X248250Y80250D02*
Y149350D01*
X154000Y164600D02*
X168650D01*
X154000Y164600D02*
X154000Y164600D01*
X38000Y152000D02*
X38000Y152000D01*
X179512Y217128D02*
X185058D01*
X176000Y222100D02*
X184682D01*
X144935D02*
X151000D01*
X185000Y204570D02*
X187762Y201807D01*
X181000Y208950D02*
X181000Y208950D01*
X185000Y204570D02*
Y208950D01*
X143625Y227225D02*
X143750Y227350D01*
X150750D01*
X201000Y202600D02*
Y208950D01*
X205000Y202818D02*
Y208950D01*
Y202818D02*
X207000Y200818D01*
X209000Y202818D01*
Y208950D01*
X229000Y202818D02*
Y208950D01*
X227000Y200818D02*
X229000Y202818D01*
X225000D02*
Y208950D01*
X209000D02*
Y212150D01*
X213000Y127600D02*
Y131600D01*
X202000Y127600D02*
X202000Y127600D01*
X206000D01*
Y148600D02*
X209000Y145600D01*
Y135600D02*
Y145600D01*
X173494Y143094D02*
X173850Y143450D01*
X177000Y140250D02*
Y143450D01*
X177316Y148169D02*
X181000Y144486D01*
Y140250D02*
Y144486D01*
X189854Y147797D02*
Y148500D01*
X189000Y146942D02*
X189854Y147797D01*
X189000Y140250D02*
Y146942D01*
X150750Y227350D02*
X151000Y227100D01*
X151250Y226850D01*
X168650Y152600D02*
X174296D01*
X176296Y154600D02*
X177000D01*
X174296Y152600D02*
X176296Y154600D01*
X179000Y241600D02*
Y252600D01*
X225500Y117100D02*
X226000Y117600D01*
X225500Y112600D02*
Y117100D01*
X237350Y160600D02*
X242297D01*
X244296Y158600D01*
X245000D01*
X151000Y185600D02*
X154000Y188600D01*
X179000Y232100D02*
Y241600D01*
X179000Y232100D02*
X179000Y232100D01*
X183700Y148220D02*
X185000Y146920D01*
Y140250D02*
Y146920D01*
X241000Y148600D02*
X243000Y146600D01*
X245000Y152600D02*
X248250Y149350D01*
X237350Y148600D02*
X241000D01*
X237350Y152600D02*
X245000D01*
X229000Y140250D02*
X231914D01*
X224664Y216850D02*
X230250D01*
X235000Y221600D01*
X185058Y217128D02*
X189000Y213186D01*
Y208950D02*
Y213186D01*
X184682Y222100D02*
X193000Y213782D01*
Y208950D02*
Y213782D01*
X197000Y208950D02*
Y214553D01*
X179484Y217100D02*
X179512Y217128D01*
X179000Y217100D02*
X179484D01*
X201000Y208950D02*
Y217600D01*
X198500Y220100D02*
X201000Y217600D01*
X191750Y126168D02*
X201000Y135418D01*
Y140250D01*
X191750Y112850D02*
Y126168D01*
X204333Y134933D02*
X205000Y135600D01*
X204333Y130933D02*
Y134933D01*
X184000Y104600D02*
Y105100D01*
X191750Y112850D01*
X192918Y131932D02*
X197000Y136014D01*
X176832Y131932D02*
X192918D01*
X197000Y136014D02*
Y140250D01*
X169000Y124100D02*
X176832Y131932D01*
X169000Y123600D02*
Y124100D01*
X205000Y135600D02*
Y140250D01*
X209000Y135600D02*
X213000Y131600D01*
D17*
X246000Y253000D02*
D03*
X200000Y101000D02*
D03*
X48000Y147000D02*
D03*
X109000D02*
D03*
X131000D02*
D03*
X71000D02*
D03*
X210000Y101000D02*
D03*
X11000Y250000D02*
D03*
X21000D02*
D03*
X236000Y253000D02*
D03*
X11000Y233000D02*
D03*
X21000D02*
D03*
X38000Y147000D02*
D03*
X61000D02*
D03*
X141000D02*
D03*
X119000D02*
D03*
D18*
X31000Y169950D02*
D03*
Y208050D02*
D03*
Y182650D02*
D03*
X105000D02*
D03*
Y195350D02*
D03*
Y169950D02*
D03*
X31000Y195350D02*
D03*
X105000Y208050D02*
D03*
D19*
X169000Y241600D02*
D03*
Y252600D02*
D03*
X171000Y89600D02*
D03*
X144000Y164600D02*
D03*
Y200600D02*
D03*
Y188600D02*
D03*
X154000D02*
D03*
Y200600D02*
D03*
Y164600D02*
D03*
X181000Y89600D02*
D03*
X179000Y252600D02*
D03*
Y241600D02*
D03*
D20*
X154000Y108600D02*
D03*
X199000Y231600D02*
D03*
X214000Y117600D02*
D03*
X235000Y231600D02*
D03*
X249000Y190600D02*
D03*
X252000Y174600D02*
D03*
X202000Y117600D02*
D03*
Y127600D02*
D03*
X252000Y164600D02*
D03*
X249000Y200600D02*
D03*
X235000Y221600D02*
D03*
X214000Y127600D02*
D03*
X199000Y221600D02*
D03*
X154000Y118600D02*
D03*
D21*
X86383Y233000D02*
D03*
X56382D02*
D03*
X45617D02*
D03*
X75617D02*
D03*
D22*
X151000Y217100D02*
D03*
Y232100D02*
D03*
X179000D02*
D03*
Y227100D02*
D03*
Y222100D02*
D03*
Y217100D02*
D03*
X151000Y222100D02*
D03*
Y227100D02*
D03*
D23*
X165000Y224600D02*
D03*
D24*
X193000Y140250D02*
D03*
X213000D02*
D03*
X217000D02*
D03*
X177000Y208950D02*
D03*
X181000D02*
D03*
X185000D02*
D03*
X189000D02*
D03*
X193000D02*
D03*
X197000D02*
D03*
X201000D02*
D03*
X205000D02*
D03*
X209000D02*
D03*
X213000D02*
D03*
X217000D02*
D03*
X221000D02*
D03*
X225000D02*
D03*
X229000D02*
D03*
Y140250D02*
D03*
X225000D02*
D03*
X221000D02*
D03*
X209000D02*
D03*
X205000D02*
D03*
X201000D02*
D03*
X197000D02*
D03*
X189000D02*
D03*
X185000D02*
D03*
X181000D02*
D03*
X177000D02*
D03*
D26*
X169000Y104600D02*
D03*
X184000Y123600D02*
D03*
Y104600D02*
D03*
X169000Y123600D02*
D03*
D27*
X168650Y168600D02*
D03*
Y184600D02*
D03*
Y176600D02*
D03*
Y172600D02*
D03*
Y180600D02*
D03*
Y160600D02*
D03*
X237350Y192600D02*
D03*
X168650Y196600D02*
D03*
Y192600D02*
D03*
X237350Y188600D02*
D03*
Y200600D02*
D03*
Y196600D02*
D03*
Y184600D02*
D03*
Y180600D02*
D03*
Y176600D02*
D03*
Y172600D02*
D03*
Y168600D02*
D03*
Y164600D02*
D03*
Y160600D02*
D03*
Y156600D02*
D03*
Y152600D02*
D03*
Y148600D02*
D03*
X168650D02*
D03*
Y152600D02*
D03*
Y156600D02*
D03*
Y164600D02*
D03*
Y188600D02*
D03*
Y200600D02*
D03*
D28*
X11000Y146000D02*
D03*
X23000D02*
D03*
X255000Y141000D02*
D03*
Y151000D02*
D03*
X23000Y136000D02*
D03*
X11000D02*
D03*
X226000Y127600D02*
D03*
Y117600D02*
D03*
X223000Y231600D02*
D03*
Y221600D02*
D03*
X211000Y231600D02*
D03*
Y221600D02*
D03*
D30*
X203000Y174600D02*
D03*
D31*
X246590Y29588D02*
D03*
X6590D02*
D03*
D32*
X21590Y34590D02*
D03*
X36590D02*
D03*
X51590D02*
D03*
X66590D02*
D03*
X81590D02*
D03*
X96590D02*
D03*
X126590D02*
D03*
X141590D02*
D03*
X156590D02*
D03*
X171590D02*
D03*
X186590D02*
D03*
X201590D02*
D03*
X216590D02*
D03*
X231590D02*
D03*
D33*
X111590Y31590D02*
D03*
D34*
X8000Y33029D02*
Y58000D01*
X248000Y29668D02*
X248080Y29588D01*
X248000Y29668D02*
Y58000D01*
X56382Y233000D02*
X64000D01*
X86200Y232818D02*
X86383Y233000D01*
X86200Y226200D02*
Y232818D01*
X86000Y226000D02*
X86200Y226200D01*
X111590Y31590D02*
X111628Y31628D01*
Y58022D01*
X111667Y58060D01*
D35*
X153809Y267232D02*
X178268D01*
X153809Y263731D02*
Y267232D01*
X146126Y263731D02*
X153809D01*
X146126D02*
Y267232D01*
X137141D02*
X146126D01*
X178268D02*
X182768D01*
X137138D02*
X137141D01*
X182768D02*
X193500Y256500D01*
X126000Y259000D02*
X183000D01*
X118000Y267000D02*
X126000Y259000D01*
X188500Y250500D02*
X200000Y239000D01*
X188500Y250500D02*
Y253500D01*
X183000Y259000D02*
X188500Y253500D01*
X193500D02*
Y256500D01*
Y253500D02*
X203000Y244000D01*
X118000Y267000D02*
Y267447D01*
X221302Y219902D02*
Y220402D01*
X216937Y209013D02*
Y215537D01*
X221302Y219902D01*
Y220402D02*
X222500Y221600D01*
X223000D01*
X203100Y239000D02*
X210500Y231600D01*
X200000Y239000D02*
X203100D01*
X210100Y244000D02*
X222500Y231600D01*
X203000Y244000D02*
X210100D01*
X210500Y231600D02*
X211000D01*
X222500D02*
X223000D01*
X216937Y209013D02*
X217000Y208950D01*
X211500Y221600D02*
X212698Y220402D01*
X211000Y221600D02*
X211500D01*
X212698Y219242D02*
X213063Y218877D01*
X213000Y208950D02*
X213063Y209013D01*
X212698Y219242D02*
Y220402D01*
X213063Y209013D02*
Y218877D01*
D36*
X49567Y211000D02*
X50000D01*
X46617Y208050D02*
X49567Y211000D01*
X13050Y208050D02*
X46617D01*
X8000Y149000D02*
Y203000D01*
Y149000D02*
X9500Y147500D01*
X8000Y203000D02*
X13050Y208050D01*
X9500Y147000D02*
Y147500D01*
X11694Y146694D02*
X14694D01*
X14800Y146588D01*
Y146219D02*
Y146588D01*
X9500Y147000D02*
X10500Y146000D01*
X11000D02*
X11694Y146694D01*
X10500Y146000D02*
X11000D01*
X53650Y195350D02*
X55000Y194000D01*
X31000Y195350D02*
X53650D01*
X77000Y178900D02*
Y182000D01*
Y178900D02*
X85950Y169950D01*
X79000Y193000D02*
Y194000D01*
Y193000D02*
X89350Y182650D01*
X105000D01*
X75000Y210000D02*
X89650Y195350D01*
X105000D01*
X53000Y149000D02*
Y174000D01*
X51500Y147500D02*
X53000Y149000D01*
X31000Y182650D02*
X44350D01*
X48000Y146500D02*
X49000Y147500D01*
X44350Y182650D02*
X53000Y174000D01*
X49000Y147500D02*
X51500D01*
X48000Y146000D02*
Y146500D01*
X61411Y146411D02*
Y153244D01*
X61717Y153550D01*
X61000Y146000D02*
X61411Y146411D01*
X15000Y158000D02*
Y190000D01*
X105000Y182650D02*
X114350D01*
X121000Y176000D01*
Y166000D02*
Y176000D01*
X109000Y154000D02*
X121000Y166000D01*
X109000Y147000D02*
Y154000D01*
X105350Y195000D02*
X120000D01*
X105000Y195350D02*
X105350Y195000D01*
X131000Y147000D02*
Y147500D01*
X128306Y150194D02*
X131000Y147500D01*
X128306Y150194D02*
Y150694D01*
X128000Y151000D02*
X128306Y150694D01*
X130000Y153433D02*
Y185000D01*
X120000Y195000D02*
X130000Y185000D01*
X128000Y151433D02*
X130000Y153433D01*
X128000Y151000D02*
Y151433D01*
X71000Y146000D02*
X78000D01*
X71000D02*
Y155000D01*
X85950Y169950D01*
X105000D01*
X15000Y190000D02*
X20350Y195350D01*
X31000D01*
X15000Y158000D02*
X23000Y150000D01*
X23000Y146000D02*
X30000D01*
X23000Y146000D02*
Y150000D01*
X67135Y225000D02*
X75135Y233000D01*
X22500Y231500D02*
X29000Y225000D01*
X67135D01*
X21000Y249500D02*
X37500Y233000D01*
X45617D01*
X21000Y232500D02*
Y233000D01*
Y232500D02*
X22000Y231500D01*
X22500D01*
X81000Y34930D02*
X81741Y35671D01*
Y58060D01*
X38000Y146000D02*
Y152000D01*
X38000Y146000D02*
X38000Y146000D01*
X66590Y34590D02*
Y39200D01*
X65329Y35850D02*
X66000Y35180D01*
X66590Y39200D02*
X66623Y39233D01*
X65329Y35850D02*
Y58060D01*
X51815Y39261D02*
Y57066D01*
Y39261D02*
X53000Y38076D01*
X142045Y37005D02*
Y58002D01*
Y37005D02*
X143000Y36050D01*
X142045Y58002D02*
Y58045D01*
X143000Y59000D01*
X141540Y34590D02*
X143000Y36050D01*
X156956Y36070D02*
Y57828D01*
Y36070D02*
X158178Y34848D01*
X156956Y57828D02*
X157861D01*
X158178Y58145D01*
X171518Y38600D02*
Y57828D01*
Y38600D02*
X173000Y37119D01*
X126671Y58060D02*
X127060D01*
X128000Y59000D01*
X126671Y37599D02*
Y58060D01*
Y37599D02*
X128000Y36270D01*
X96850Y38332D02*
Y57944D01*
Y38332D02*
X98000Y37182D01*
X95644Y34826D02*
X98000Y37182D01*
X153170Y165430D02*
Y169107D01*
X153666Y169604D01*
X154413D01*
X153170Y165430D02*
X154000Y164600D01*
X119000Y141000D02*
Y147000D01*
X119000Y147000D01*
X171225Y35344D02*
X173000Y37119D01*
X158000Y34670D02*
X158178Y34848D01*
X126320Y34590D02*
X128000Y36270D01*
X49866Y34943D02*
X53000Y38076D01*
X158000Y34670D02*
X158080Y34590D01*
X171225Y35344D02*
X171980Y34590D01*
X95644Y34826D02*
X95880Y34590D01*
D37*
X105000Y208050D02*
Y226000D01*
X109000Y230000D01*
D38*
X21000Y249500D02*
Y250000D01*
X75135Y233000D02*
X75617D01*
X154000Y188600D02*
Y200600D01*
D39*
X255000Y283000D02*
D03*
X250000Y273000D02*
D03*
X255000Y223000D02*
D03*
Y83000D02*
D03*
Y63000D02*
D03*
X245000Y283000D02*
D03*
X240000Y273000D02*
D03*
X235000Y283000D02*
D03*
X230000Y273000D02*
D03*
X235000Y263000D02*
D03*
X225000Y283000D02*
D03*
X215000D02*
D03*
X205000D02*
D03*
X195000D02*
D03*
X190000Y273000D02*
D03*
X185000Y283000D02*
D03*
X180000Y73000D02*
D03*
X175000Y283000D02*
D03*
X165000D02*
D03*
Y83000D02*
D03*
X160000Y73000D02*
D03*
X155000Y83000D02*
D03*
X150000Y73000D02*
D03*
X100000Y93000D02*
D03*
X90000D02*
D03*
X80000D02*
D03*
X70000D02*
D03*
X65000Y103000D02*
D03*
X60000Y93000D02*
D03*
X50000Y113000D02*
D03*
X55000Y103000D02*
D03*
X50000Y93000D02*
D03*
X55000Y83000D02*
D03*
X45000Y123000D02*
D03*
Y103000D02*
D03*
Y83000D02*
D03*
X25000Y283000D02*
D03*
X20000Y273000D02*
D03*
X15000Y283000D02*
D03*
X10000Y273000D02*
D03*
Y73000D02*
D03*
X15000Y63000D02*
D03*
X246189Y264503D02*
D03*
X143232Y214696D02*
D03*
X194155Y231934D02*
D03*
X0Y134000D02*
D03*
X254771Y189958D02*
D03*
X257223Y174615D02*
D03*
X134000Y219000D02*
D03*
X235550Y235949D02*
D03*
X50000Y211000D02*
D03*
X179008Y167948D02*
D03*
X14800Y146219D02*
D03*
X118000Y267000D02*
D03*
X137138Y267232D02*
D03*
X221000Y129000D02*
D03*
X53000Y174000D02*
D03*
X54325Y194675D02*
D03*
X75000Y210000D02*
D03*
X79000Y193500D02*
D03*
X77000Y183000D02*
D03*
X159000Y182600D02*
D03*
X53000Y149000D02*
D03*
X61717Y153550D02*
D03*
X179000Y176000D02*
D03*
X108036Y151918D02*
D03*
X162576Y172600D02*
D03*
X128000Y151000D02*
D03*
X179000Y182000D02*
D03*
X78000Y146000D02*
D03*
X176000Y160600D02*
D03*
X30000Y146000D02*
D03*
X261000Y141000D02*
D03*
X125000Y224000D02*
D03*
X132000Y242000D02*
D03*
X253550Y198600D02*
D03*
X227000Y191000D02*
D03*
Y180000D02*
D03*
X161198Y196094D02*
D03*
X179000Y192000D02*
D03*
X213000Y148600D02*
D03*
X219000D02*
D03*
X143399Y232449D02*
D03*
X225751Y239601D02*
D03*
X256737Y164937D02*
D03*
X31326Y136335D02*
D03*
X229000Y156000D02*
D03*
X218000Y201000D02*
D03*
X199000D02*
D03*
X143000Y220599D02*
D03*
Y226600D02*
D03*
X119000Y141000D02*
D03*
X177316Y148758D02*
D03*
X177000Y154600D02*
D03*
X141000Y140600D02*
D03*
X187762Y201035D02*
D03*
X181000Y201600D02*
D03*
X38000Y152000D02*
D03*
X206000Y148600D02*
D03*
X173494Y143094D02*
D03*
X189854Y148500D02*
D03*
X245000Y158600D02*
D03*
X183700Y148220D02*
D03*
D40*
X165389Y214989D02*
D03*
X43000Y162000D02*
D03*
X58000Y206000D02*
D03*
X214000Y112600D02*
D03*
X196640Y148950D02*
D03*
X162260Y96314D02*
D03*
X202000Y112600D02*
D03*
X193000Y184600D02*
D03*
X213000D02*
D03*
Y164600D02*
D03*
X193000D02*
D03*
X144000Y184100D02*
D03*
X8000Y58000D02*
D03*
X248000D02*
D03*
X138000Y200600D02*
D03*
X144000Y169000D02*
D03*
X170000Y235250D02*
D03*
X64000Y233000D02*
D03*
X86000Y226000D02*
D03*
X206000Y90000D02*
D03*
X188000Y241000D02*
D03*
X227000Y199600D02*
D03*
X82750Y261250D02*
D03*
X109000Y230000D02*
D03*
X81741Y58060D02*
D03*
X65329D02*
D03*
X51815D02*
D03*
X141592D02*
D03*
X156555D02*
D03*
X171518D02*
D03*
X126629D02*
D03*
X111667D02*
D03*
X96704D02*
D03*
X207000Y199600D02*
D03*
X151858Y184458D02*
D03*
X154413Y169604D02*
D03*
X206000Y127600D02*
D03*
X65086Y81000D02*
D03*
X225500Y112600D02*
D03*
M02*
