G04*
G04 #@! TF.GenerationSoftware,Altium Limited,Altium Designer,25.8.1 (18)*
G04*
G04 Layer_Color=8421504*
%FSLAX44Y44*%
%MOMM*%
G71*
G04*
G04 #@! TF.SameCoordinates,37AF7AFF-A48C-4EBF-8118-5EBCA45AC8C0*
G04*
G04*
G04 #@! TF.FilePolarity,Positive*
G04*
G01*
G75*
%ADD17R,0.5000X0.6000*%
%ADD18R,1.3000X0.8000*%
%ADD19R,0.5000X0.5000*%
%ADD20R,0.5000X0.5000*%
%ADD21R,0.6365X0.5400*%
%ADD22R,0.9000X0.3000*%
%ADD23R,0.2500X1.6500*%
G04:AMPARAMS|DCode=24|XSize=0.2mm|YSize=0.84mm|CornerRadius=0.025mm|HoleSize=0mm|Usage=FLASHONLY|Rotation=0.000|XOffset=0mm|YOffset=0mm|HoleType=Round|Shape=RoundedRectangle|*
%AMROUNDEDRECTD24*
21,1,0.2000,0.7900,0,0,0.0*
21,1,0.1500,0.8400,0,0,0.0*
1,1,0.0500,0.0750,-0.3950*
1,1,0.0500,-0.0750,-0.3950*
1,1,0.0500,-0.0750,0.3950*
1,1,0.0500,0.0750,0.3950*
%
%ADD24ROUNDEDRECTD24*%
%ADD25R,1.9600X1.9600*%
%ADD26R,1.1000X1.2000*%
G04:AMPARAMS|DCode=27|XSize=0.84mm|YSize=0.2mm|CornerRadius=0.025mm|HoleSize=0mm|Usage=FLASHONLY|Rotation=0.000|XOffset=0mm|YOffset=0mm|HoleType=Round|Shape=RoundedRectangle|*
%AMROUNDEDRECTD27*
21,1,0.8400,0.1500,0,0,0.0*
21,1,0.7900,0.2000,0,0,0.0*
1,1,0.0500,0.3950,-0.0750*
1,1,0.0500,-0.3950,-0.0750*
1,1,0.0500,-0.3950,0.0750*
1,1,0.0500,0.3950,0.0750*
%
%ADD27ROUNDEDRECTD27*%
%ADD28R,0.6000X0.5000*%
G36*
X49020Y235300D02*
Y230700D01*
X48620Y230300D01*
X42835D01*
X42435Y230700D01*
Y235300D01*
X42835Y235700D01*
X48620D01*
X49020Y235300D01*
D02*
G37*
G36*
X52980D02*
Y230700D01*
X53380Y230300D01*
X59165D01*
X59565Y230700D01*
Y235300D01*
X59165Y235700D01*
X53380D01*
X52980Y235300D01*
D02*
G37*
G36*
X79020D02*
Y230700D01*
X78620Y230300D01*
X72835D01*
X72435Y230700D01*
Y235300D01*
X72835Y235700D01*
X78620D01*
X79020Y235300D01*
D02*
G37*
G36*
X82980D02*
Y230700D01*
X83380Y230300D01*
X89165D01*
X89565Y230700D01*
Y235300D01*
X89165Y235700D01*
X83380D01*
X82980Y235300D01*
D02*
G37*
D17*
X246000Y253000D02*
D03*
X200000Y101000D02*
D03*
X48000Y147000D02*
D03*
X109000D02*
D03*
X131000D02*
D03*
X71000D02*
D03*
X210000Y101000D02*
D03*
X11000Y250000D02*
D03*
X21000D02*
D03*
X236000Y253000D02*
D03*
X11000Y233000D02*
D03*
X21000D02*
D03*
X38000Y147000D02*
D03*
X61000D02*
D03*
X141000D02*
D03*
X119000D02*
D03*
D18*
X31000Y169950D02*
D03*
Y208050D02*
D03*
Y182650D02*
D03*
X105000D02*
D03*
Y195350D02*
D03*
Y169950D02*
D03*
X31000Y195350D02*
D03*
X105000Y208050D02*
D03*
D19*
X169000Y241600D02*
D03*
Y252600D02*
D03*
X171000Y89600D02*
D03*
X144000Y164600D02*
D03*
Y200600D02*
D03*
Y188600D02*
D03*
X154000D02*
D03*
Y200600D02*
D03*
Y164600D02*
D03*
X181000Y89600D02*
D03*
X179000Y252600D02*
D03*
Y241600D02*
D03*
D20*
X154000Y108600D02*
D03*
X199000Y231600D02*
D03*
X214000Y117600D02*
D03*
X235000Y231600D02*
D03*
X249000Y190600D02*
D03*
X252000Y174600D02*
D03*
X202000Y117600D02*
D03*
Y127600D02*
D03*
X252000Y164600D02*
D03*
X249000Y200600D02*
D03*
X235000Y221600D02*
D03*
X214000Y127600D02*
D03*
X199000Y221600D02*
D03*
X154000Y118600D02*
D03*
D21*
X86383Y233000D02*
D03*
X56382D02*
D03*
X45617D02*
D03*
X75617D02*
D03*
D22*
X151000Y217100D02*
D03*
Y232100D02*
D03*
X179000D02*
D03*
Y227100D02*
D03*
Y222100D02*
D03*
Y217100D02*
D03*
X151000Y222100D02*
D03*
Y227100D02*
D03*
D23*
X165000Y224600D02*
D03*
D24*
X193000Y140250D02*
D03*
X213000D02*
D03*
X217000D02*
D03*
X177000Y208950D02*
D03*
X181000D02*
D03*
X185000D02*
D03*
X189000D02*
D03*
X193000D02*
D03*
X197000D02*
D03*
X201000D02*
D03*
X205000D02*
D03*
X209000D02*
D03*
X213000D02*
D03*
X217000D02*
D03*
X221000D02*
D03*
X225000D02*
D03*
X229000D02*
D03*
Y140250D02*
D03*
X225000D02*
D03*
X221000D02*
D03*
X209000D02*
D03*
X205000D02*
D03*
X201000D02*
D03*
X197000D02*
D03*
X189000D02*
D03*
X185000D02*
D03*
X181000D02*
D03*
X177000D02*
D03*
D25*
X203000Y174600D02*
D03*
D26*
X169000Y104600D02*
D03*
X184000Y123600D02*
D03*
Y104600D02*
D03*
X169000Y123600D02*
D03*
D27*
X168650Y168600D02*
D03*
Y184600D02*
D03*
Y176600D02*
D03*
Y172600D02*
D03*
Y180600D02*
D03*
Y160600D02*
D03*
X237350Y192600D02*
D03*
X168650Y196600D02*
D03*
Y192600D02*
D03*
X237350Y188600D02*
D03*
Y200600D02*
D03*
Y196600D02*
D03*
Y184600D02*
D03*
Y180600D02*
D03*
Y176600D02*
D03*
Y172600D02*
D03*
Y168600D02*
D03*
Y164600D02*
D03*
Y160600D02*
D03*
Y156600D02*
D03*
Y152600D02*
D03*
Y148600D02*
D03*
X168650D02*
D03*
Y152600D02*
D03*
Y156600D02*
D03*
Y164600D02*
D03*
Y188600D02*
D03*
Y200600D02*
D03*
D28*
X11000Y146000D02*
D03*
X23000D02*
D03*
X255000Y141000D02*
D03*
Y151000D02*
D03*
X23000Y136000D02*
D03*
X11000D02*
D03*
X226000Y127600D02*
D03*
Y117600D02*
D03*
X223000Y231600D02*
D03*
Y221600D02*
D03*
X211000Y231600D02*
D03*
Y221600D02*
D03*
M02*
