G04*
G04 #@! TF.GenerationSoftware,Altium Limited,Altium Designer,25.8.1 (18)*
G04*
G04 Layer_Physical_Order=4*
G04 Layer_Color=16711680*
%FSLAX44Y44*%
%MOMM*%
G71*
G04*
G04 #@! TF.SameCoordinates,37AF7AFF-A48C-4EBF-8118-5EBCA45AC8C0*
G04*
G04*
G04 #@! TF.FilePolarity,Positive*
G04*
G01*
G75*
%ADD11C,0.2000*%
%ADD35C,0.2603*%
%ADD36C,0.3000*%
%ADD37C,0.7000*%
%ADD39C,0.4600*%
%ADD40C,0.6500*%
%ADD45C,1.0000*%
G36*
X263534Y293078D02*
X264223Y292388D01*
X264597Y291488D01*
Y146318D01*
X263477Y145719D01*
X263068Y145992D01*
X261000Y146404D01*
X258932Y145992D01*
X257179Y144821D01*
X256007Y143068D01*
X255596Y141000D01*
X256007Y138932D01*
X257179Y137179D01*
X258932Y136007D01*
X261000Y135596D01*
X263068Y136007D01*
X263477Y136280D01*
X264597Y135682D01*
Y132884D01*
X264521Y132710D01*
X263471Y131780D01*
X262447Y131782D01*
X262189Y131732D01*
X261927Y131730D01*
X259010Y131129D01*
X258689Y130993D01*
X258355Y130897D01*
X255708Y129530D01*
X255436Y129313D01*
X255140Y129130D01*
X252960Y127099D01*
X252757Y126816D01*
X252521Y126560D01*
X250972Y124016D01*
X250852Y123689D01*
X250695Y123379D01*
X249890Y120511D01*
X249863Y120163D01*
X249795Y119822D01*
Y116843D01*
X249863Y116502D01*
X249890Y116155D01*
X250695Y113287D01*
X250852Y112976D01*
X250972Y112649D01*
X252521Y110105D01*
X252757Y109849D01*
X252960Y109566D01*
X255140Y107535D01*
X255436Y107352D01*
X255708Y107135D01*
X258354Y105768D01*
X258689Y105672D01*
X259010Y105536D01*
X261927Y104935D01*
X262189Y104934D01*
X262447Y104883D01*
X263471Y104885D01*
X264521Y103955D01*
X264597Y103782D01*
Y7034D01*
X264502Y6561D01*
X264318Y6115D01*
X264049Y5713D01*
X263878Y5542D01*
X263878Y5542D01*
X256584Y-1752D01*
X256413Y-1923D01*
X256012Y-2191D01*
X255566Y-2376D01*
X255092Y-2470D01*
X254851D01*
X-19D01*
X-507D01*
X-1408Y-2097D01*
X-2097Y-1408D01*
X-2470Y-507D01*
Y103782D01*
X-2395Y103955D01*
X-1345Y104885D01*
X-320Y104883D01*
X-63Y104934D01*
X199Y104935D01*
X3117Y105536D01*
X3437Y105672D01*
X3772Y105768D01*
X6418Y107135D01*
X6691Y107352D01*
X6987Y107535D01*
X9166Y109566D01*
X9369Y109849D01*
X9605Y110105D01*
X11154Y112649D01*
X11274Y112976D01*
X11431Y113287D01*
X12236Y116155D01*
X12263Y116502D01*
X12331Y116843D01*
Y119822D01*
X12263Y120163D01*
X12236Y120511D01*
X11431Y123379D01*
X11274Y123689D01*
X11154Y124016D01*
X9605Y126560D01*
X9369Y126816D01*
X9166Y127099D01*
X6987Y129130D01*
X6690Y129313D01*
X6418Y129530D01*
X3772Y130897D01*
X3437Y130993D01*
X3117Y131129D01*
X199Y131730D01*
X-63Y131732D01*
X-320Y131782D01*
X-1345Y131780D01*
X-1413Y131807D01*
X-2393Y132706D01*
X-2470Y132884D01*
Y291488D01*
X-2097Y292388D01*
X-1408Y293078D01*
X-507Y293451D01*
X262633D01*
X263534Y293078D01*
D02*
G37*
%LPC*%
G36*
X157000Y284929D02*
Y279000D01*
X162929D01*
X162820Y279827D01*
X162115Y281530D01*
X160992Y282992D01*
X159530Y284114D01*
X157827Y284820D01*
X157000Y284929D01*
D02*
G37*
G36*
X155000Y284929D02*
X154173Y284820D01*
X152470Y284114D01*
X151007Y282992D01*
X149886Y281530D01*
X149180Y279827D01*
X149071Y279000D01*
X155000D01*
Y284929D01*
D02*
G37*
G36*
Y277000D02*
X149071D01*
X149180Y276173D01*
X149886Y274470D01*
X151007Y273008D01*
X152470Y271886D01*
X154173Y271180D01*
X155000Y271071D01*
Y277000D01*
D02*
G37*
G36*
X162929D02*
X157000D01*
Y271071D01*
X157827Y271180D01*
X159530Y271886D01*
X160992Y273008D01*
X162115Y274470D01*
X162820Y276173D01*
X162929Y277000D01*
D02*
G37*
G36*
X136000Y286069D02*
X133912Y285794D01*
X131966Y284988D01*
X130294Y283706D01*
X129012Y282034D01*
X128206Y280088D01*
X127931Y278000D01*
X128206Y275912D01*
X129012Y273965D01*
X130294Y272294D01*
X131614Y271282D01*
Y268910D01*
X131841Y267769D01*
X131734Y267232D01*
X132145Y265164D01*
X133317Y263411D01*
X135070Y262239D01*
X137138Y261828D01*
X139206Y262239D01*
X140959Y263411D01*
X142130Y265164D01*
X142542Y267232D01*
X142130Y269300D01*
X140959Y271053D01*
X140938Y271705D01*
X141706Y272294D01*
X142988Y273965D01*
X143794Y275912D01*
X144069Y278000D01*
X143794Y280088D01*
X142988Y282034D01*
X141706Y283706D01*
X140035Y284988D01*
X138088Y285794D01*
X136000Y286069D01*
D02*
G37*
G36*
X116000D02*
X113912Y285794D01*
X111966Y284988D01*
X110294Y283706D01*
X109012Y282034D01*
X108206Y280088D01*
X107931Y278000D01*
X108206Y275912D01*
X109012Y273965D01*
X110294Y272294D01*
X111614Y271282D01*
Y269447D01*
X111948Y267769D01*
X112653Y266713D01*
X113007Y264932D01*
X114179Y263179D01*
X115932Y262008D01*
X118000Y261596D01*
X120068Y262008D01*
X121821Y263179D01*
X122992Y264932D01*
X123404Y267000D01*
X122992Y269068D01*
X121821Y270821D01*
X121639Y270942D01*
X121605Y272001D01*
X121772Y272381D01*
X122988Y273965D01*
X123794Y275912D01*
X124069Y278000D01*
X123794Y280088D01*
X122988Y282034D01*
X121706Y283706D01*
X120035Y284988D01*
X118088Y285794D01*
X116000Y286069D01*
D02*
G37*
G36*
X96000D02*
X93912Y285794D01*
X91966Y284988D01*
X90294Y283706D01*
X89012Y282034D01*
X88206Y280088D01*
X87931Y278000D01*
X88206Y275912D01*
X89002Y273990D01*
X82605Y267594D01*
X80311Y267137D01*
X78244Y265756D01*
X76863Y263689D01*
X76378Y261250D01*
X76863Y258811D01*
X78244Y256744D01*
X80311Y255363D01*
X82750Y254877D01*
X85189Y255363D01*
X87256Y256744D01*
X88637Y258811D01*
X89094Y261105D01*
X97905Y269916D01*
X98102Y270212D01*
X100035Y271012D01*
X101706Y272294D01*
X102988Y273965D01*
X103794Y275912D01*
X104069Y278000D01*
X103794Y280088D01*
X102988Y282034D01*
X101706Y283706D01*
X100035Y284988D01*
X98088Y285794D01*
X96000Y286069D01*
D02*
G37*
G36*
X213000Y277125D02*
X209215Y276627D01*
X205687Y275166D01*
X202659Y272841D01*
X200334Y269813D01*
X198873Y266285D01*
X198375Y262500D01*
X198873Y258715D01*
X200334Y255187D01*
X199317Y254451D01*
X191884Y261884D01*
X190561Y262768D01*
X189000Y263078D01*
X189000Y263078D01*
X149094D01*
X147533Y262768D01*
X146210Y261884D01*
X146210Y261884D01*
X131663Y247337D01*
X129932Y246992D01*
X128179Y245821D01*
X127008Y244068D01*
X126596Y242000D01*
X127008Y239932D01*
X128179Y238179D01*
X129932Y237008D01*
X130536Y236887D01*
X130904Y235672D01*
X124546Y229314D01*
X122932Y228993D01*
X121179Y227821D01*
X120007Y226068D01*
X119596Y224000D01*
X120007Y221932D01*
X121179Y220179D01*
X122932Y219007D01*
X125000Y218596D01*
X127068Y219007D01*
X128821Y220179D01*
X129993Y221932D01*
X130314Y223546D01*
X136594Y229826D01*
X137767Y229340D01*
Y227460D01*
X137596Y226600D01*
X137767Y225739D01*
Y221771D01*
X137767Y221771D01*
X137767D01*
X137596Y220599D01*
X138007Y218532D01*
X139179Y216779D01*
X140932Y215607D01*
X141500Y215494D01*
X141375Y214224D01*
X118544D01*
X110292Y222475D01*
X110370Y222704D01*
X110838Y223726D01*
X112278Y224322D01*
X113636Y225364D01*
X114678Y226722D01*
X115333Y228303D01*
X115556Y230000D01*
Y234000D01*
X115333Y235697D01*
X114678Y237278D01*
X113636Y238636D01*
X112278Y239678D01*
X110697Y240333D01*
X109000Y240556D01*
X107303Y240333D01*
X105722Y239678D01*
X105114Y239212D01*
X103924Y239899D01*
X104069Y241000D01*
X103794Y243088D01*
X102988Y245035D01*
X101706Y246706D01*
X100035Y247988D01*
X98088Y248794D01*
X96000Y249069D01*
X93912Y248794D01*
X91966Y247988D01*
X90294Y246706D01*
X89012Y245035D01*
X88206Y243088D01*
X87931Y241000D01*
X88206Y238912D01*
X89012Y236966D01*
X90294Y235294D01*
X91922Y234046D01*
Y231000D01*
X91922Y231000D01*
X92232Y229439D01*
X93116Y228116D01*
X109881Y211352D01*
X109395Y210178D01*
X93589D01*
X82078Y221689D01*
Y234046D01*
X83706Y235294D01*
X84988Y236966D01*
X85794Y238912D01*
X86069Y241000D01*
X85794Y243088D01*
X84988Y245035D01*
X83706Y246706D01*
X82035Y247988D01*
X80088Y248794D01*
X78000Y249069D01*
X75912Y248794D01*
X73966Y247988D01*
X72294Y246706D01*
X71012Y245035D01*
X70206Y243088D01*
X69931Y241000D01*
X70206Y238912D01*
X71012Y236966D01*
X72294Y235294D01*
X73922Y234046D01*
Y226096D01*
X73099Y225817D01*
X72652Y225747D01*
X71034Y226988D01*
X69088Y227794D01*
X67000Y228069D01*
X64912Y227794D01*
X62965Y226988D01*
X61294Y225706D01*
X60012Y224035D01*
X59206Y222088D01*
X58931Y220000D01*
X59206Y217912D01*
X60012Y215965D01*
X61294Y214294D01*
X62965Y213012D01*
X64912Y212206D01*
X67000Y211931D01*
X67012Y211933D01*
X69315Y209629D01*
X69235Y208905D01*
X67998Y207938D01*
X67000Y208069D01*
X64912Y207794D01*
X62965Y206988D01*
X61294Y205706D01*
X60012Y204035D01*
X59206Y202088D01*
X58931Y200000D01*
X59020Y199323D01*
X58954Y199261D01*
X57819Y198714D01*
X56393Y199667D01*
X54325Y200079D01*
X53095Y199834D01*
X51975Y200711D01*
X51794Y202088D01*
X50988Y204035D01*
X50679Y204436D01*
X51206Y205836D01*
X52068Y206007D01*
X53821Y207179D01*
X54992Y208932D01*
X55404Y211000D01*
X54992Y213068D01*
X53821Y214821D01*
X53234Y215213D01*
X52938Y215656D01*
X51469Y217126D01*
X51794Y217912D01*
X52069Y220000D01*
X51794Y222088D01*
X50988Y224035D01*
X49706Y225706D01*
X48035Y226988D01*
X46088Y227794D01*
X44000Y228069D01*
X41912Y227794D01*
X39966Y226988D01*
X38294Y225706D01*
X37012Y224035D01*
X36206Y222088D01*
X35931Y220000D01*
X36206Y217912D01*
X37012Y215965D01*
X38294Y214294D01*
X39966Y213012D01*
X41912Y212206D01*
X43639Y211979D01*
X44600Y211017D01*
X44596Y211000D01*
X44949Y209225D01*
X44190Y208044D01*
X44000Y208069D01*
X41912Y207794D01*
X39966Y206988D01*
X38294Y205706D01*
X37012Y204035D01*
X36206Y202088D01*
X35931Y200000D01*
X36206Y197912D01*
X37012Y195965D01*
X38294Y194294D01*
X39966Y193012D01*
X41912Y192206D01*
X44000Y191931D01*
X46088Y192206D01*
X46874Y192531D01*
X47669Y191737D01*
X49157Y190742D01*
X50913Y190393D01*
X51194D01*
X52257Y189683D01*
X54325Y189271D01*
X56393Y189683D01*
X58146Y190854D01*
X59317Y192607D01*
X59661Y194336D01*
X60714Y194740D01*
X60941Y194755D01*
X61294Y194294D01*
X62965Y193012D01*
X64912Y192206D01*
X67000Y191931D01*
X69088Y192206D01*
X69275Y192283D01*
X70997Y190562D01*
X72485Y189567D01*
X74241Y189218D01*
X74341D01*
X74881Y188042D01*
X74865Y187948D01*
X73179Y186821D01*
X71522Y186614D01*
X71034Y186988D01*
X69088Y187794D01*
X67000Y188069D01*
X64912Y187794D01*
X62965Y186988D01*
X61294Y185706D01*
X60012Y184035D01*
X59206Y182088D01*
X58931Y180000D01*
X59206Y177912D01*
X60012Y175965D01*
X61253Y174348D01*
X61183Y173901D01*
X60904Y173078D01*
X59160D01*
X58404Y174000D01*
X57993Y176068D01*
X56821Y177821D01*
X55068Y178993D01*
X53000Y179404D01*
X52003Y180500D01*
X51794Y182088D01*
X50988Y184035D01*
X49706Y185706D01*
X48035Y186988D01*
X46088Y187794D01*
X44000Y188069D01*
X41912Y187794D01*
X39966Y186988D01*
X38294Y185706D01*
X37012Y184035D01*
X36206Y182088D01*
X35931Y180000D01*
X36206Y177912D01*
X37012Y175965D01*
X38253Y174348D01*
X38183Y173901D01*
X37904Y173078D01*
X36000D01*
X34439Y172768D01*
X33116Y171884D01*
X33116Y171884D01*
X12414Y151181D01*
X12193Y150851D01*
X11348Y150287D01*
X10078Y150804D01*
Y203311D01*
X18966Y212199D01*
X21000Y211931D01*
X23088Y212206D01*
X25034Y213012D01*
X26706Y214294D01*
X27988Y215965D01*
X28794Y217912D01*
X29069Y220000D01*
X28794Y222088D01*
X27988Y224035D01*
X26706Y225706D01*
X25034Y226988D01*
X23088Y227794D01*
X21000Y228069D01*
X18912Y227794D01*
X16966Y226988D01*
X15294Y225706D01*
X14012Y224035D01*
X13206Y222088D01*
X12931Y220000D01*
X13199Y217966D01*
X3116Y207884D01*
X2232Y206561D01*
X1922Y205000D01*
X1922Y205000D01*
Y144000D01*
X1922Y144000D01*
X2232Y142439D01*
X3116Y141116D01*
X10781Y133452D01*
X10781Y133451D01*
X12104Y132568D01*
X13665Y132257D01*
X13665Y132257D01*
X27890D01*
X29258Y131343D01*
X31326Y130932D01*
X33394Y131343D01*
X35147Y132514D01*
X35621Y133223D01*
X36885Y133348D01*
X43116Y127116D01*
X43116Y127116D01*
X44439Y126232D01*
X46000Y125922D01*
X46000Y125922D01*
X116886D01*
X116886Y125922D01*
X118446Y126232D01*
X119770Y127116D01*
X123578Y130925D01*
X136433D01*
X136448Y130922D01*
X143495D01*
X143981Y129748D01*
X83890Y69658D01*
X81120D01*
X81120Y69658D01*
X79559Y69347D01*
X78236Y68463D01*
X78236Y68463D01*
X71546Y61773D01*
X70282Y61898D01*
X69970Y62365D01*
Y77059D01*
X70974Y78561D01*
X71459Y81000D01*
X70974Y83439D01*
X69592Y85506D01*
X67525Y86887D01*
X65086Y87373D01*
X62648Y86887D01*
X60581Y85506D01*
X59199Y83439D01*
X58714Y81000D01*
X59199Y78561D01*
X60581Y76494D01*
X61813Y75670D01*
Y63228D01*
X60823Y62566D01*
X59442Y60499D01*
X59220Y59382D01*
X57925D01*
X57702Y60499D01*
X56321Y62566D01*
X54254Y63948D01*
X51815Y64433D01*
X49376Y63948D01*
X47309Y62566D01*
X45928Y60499D01*
X45443Y58060D01*
X45928Y55622D01*
X47309Y53554D01*
X49376Y52173D01*
X51815Y51688D01*
X53257Y51975D01*
X55962Y49271D01*
X55962Y49271D01*
X57285Y48386D01*
X58846Y48076D01*
X58846Y48076D01*
X67695D01*
X67695Y48076D01*
X69255Y48386D01*
X70579Y49271D01*
X75577Y54269D01*
X76841Y54144D01*
X77235Y53554D01*
X79302Y52173D01*
X81741Y51688D01*
X84079Y52153D01*
X100116Y36116D01*
X100116Y36116D01*
X101439Y35232D01*
X103000Y34922D01*
X103000Y34922D01*
X196000D01*
X196000Y34922D01*
X197561Y35232D01*
X198884Y36116D01*
X245884Y83116D01*
X246768Y84439D01*
X247078Y86000D01*
X247078Y86000D01*
Y153615D01*
X248821Y154779D01*
X249993Y156532D01*
X250404Y158600D01*
X249993Y160668D01*
X248821Y162421D01*
X247068Y163592D01*
X245000Y164004D01*
X244078Y164760D01*
Y167311D01*
X244966Y168199D01*
X247000Y167931D01*
X249088Y168206D01*
X251035Y169012D01*
X252706Y170294D01*
X253988Y171966D01*
X254794Y173912D01*
X255069Y176000D01*
X254794Y178088D01*
X253988Y180035D01*
X252706Y181706D01*
X251035Y182988D01*
X249088Y183794D01*
X247000Y184069D01*
X244912Y183794D01*
X243348Y183147D01*
X242078Y183760D01*
Y185311D01*
X247884Y191116D01*
X248768Y192439D01*
X249023Y193723D01*
X249739Y194190D01*
X250348Y194365D01*
X251482Y193607D01*
X253550Y193196D01*
X255618Y193607D01*
X257371Y194778D01*
X258542Y196532D01*
X258954Y198600D01*
X258542Y200667D01*
X257371Y202421D01*
X255618Y203592D01*
X253550Y204003D01*
X252915Y205172D01*
X252794Y206088D01*
X251988Y208034D01*
X250706Y209706D01*
X249035Y210988D01*
X247088Y211794D01*
X245000Y212069D01*
X242912Y211794D01*
X240965Y210988D01*
X239294Y209706D01*
X238012Y208034D01*
X237782Y207479D01*
X236536Y207231D01*
X235078Y208689D01*
Y215311D01*
X242984Y223216D01*
X242984Y223216D01*
X243868Y224539D01*
X244178Y226100D01*
Y242650D01*
X244178Y242650D01*
X243868Y244211D01*
X242984Y245534D01*
X242984Y245534D01*
X236634Y251884D01*
X235311Y252768D01*
X233750Y253078D01*
X233750Y253078D01*
X225483D01*
X224921Y254217D01*
X225666Y255187D01*
X227127Y258715D01*
X227625Y262500D01*
X227127Y266285D01*
X225666Y269813D01*
X223342Y272841D01*
X220313Y275166D01*
X216785Y276627D01*
X213000Y277125D01*
D02*
G37*
G36*
X246189Y269906D02*
X244121Y269495D01*
X242368Y268324D01*
X241196Y266570D01*
X240785Y264503D01*
X241196Y262435D01*
X242368Y260681D01*
X244008Y259585D01*
X243931Y259000D01*
X244206Y256912D01*
X245012Y254965D01*
X246294Y253294D01*
X247966Y252012D01*
X249912Y251206D01*
X252000Y250931D01*
X254088Y251206D01*
X256035Y252012D01*
X257706Y253294D01*
X258988Y254965D01*
X259794Y256912D01*
X260069Y259000D01*
X259794Y261088D01*
X258988Y263034D01*
X257706Y264706D01*
X256035Y265988D01*
X254088Y266794D01*
X252000Y267069D01*
X250941Y266930D01*
X250010Y268324D01*
X248257Y269495D01*
X246189Y269906D01*
D02*
G37*
G36*
X48300Y277125D02*
X44515Y276627D01*
X40987Y275166D01*
X37959Y272841D01*
X35634Y269813D01*
X34173Y266285D01*
X33675Y262500D01*
X34173Y258715D01*
X35634Y255187D01*
X37959Y252159D01*
X40987Y249834D01*
X44515Y248373D01*
X48300Y247875D01*
X52085Y248373D01*
X55613Y249834D01*
X58642Y252159D01*
X60966Y255187D01*
X62427Y258715D01*
X62925Y262500D01*
X62427Y266285D01*
X60966Y269813D01*
X58642Y272841D01*
X55613Y275166D01*
X52085Y276627D01*
X48300Y277125D01*
D02*
G37*
G36*
X22000Y186929D02*
Y181000D01*
X27929D01*
X27820Y181827D01*
X27115Y183530D01*
X25993Y184992D01*
X24530Y186115D01*
X22827Y186820D01*
X22000Y186929D01*
D02*
G37*
G36*
X20000Y186929D02*
X19173Y186820D01*
X17470Y186115D01*
X16008Y184992D01*
X14885Y183530D01*
X14180Y181827D01*
X14071Y181000D01*
X20000D01*
Y186929D01*
D02*
G37*
G36*
Y179000D02*
X14071D01*
X14180Y178173D01*
X14885Y176470D01*
X16008Y175007D01*
X17470Y173885D01*
X19173Y173180D01*
X20000Y173071D01*
Y179000D01*
D02*
G37*
G36*
X27929D02*
X22000D01*
Y173071D01*
X22827Y173180D01*
X24530Y173885D01*
X25993Y175007D01*
X27115Y176470D01*
X27820Y178173D01*
X27929Y179000D01*
D02*
G37*
G36*
X256737Y170341D02*
X254669Y169930D01*
X252916Y168759D01*
X251745Y167006D01*
X251334Y164937D01*
X251745Y162869D01*
X252916Y161116D01*
X254669Y159945D01*
X256737Y159534D01*
X258806Y159945D01*
X260559Y161116D01*
X261730Y162869D01*
X262141Y164937D01*
X261730Y167006D01*
X260559Y168759D01*
X258806Y169930D01*
X256737Y170341D01*
D02*
G37*
%LPD*%
G36*
X187637Y248595D02*
X187219Y247217D01*
X185561Y246887D01*
X183494Y245506D01*
X182113Y243439D01*
X181628Y241000D01*
X182113Y238561D01*
X183494Y236494D01*
X185561Y235113D01*
X188000Y234627D01*
X190439Y235113D01*
X192506Y236494D01*
X193887Y238561D01*
X194217Y240219D01*
X195595Y240637D01*
X198366Y237866D01*
X198366Y237866D01*
X199689Y236982D01*
X201250Y236672D01*
X218966D01*
X218966Y236672D01*
X220527Y236982D01*
X220942Y237259D01*
X221673Y236165D01*
Y232440D01*
X207311Y218078D01*
X184289D01*
X184000Y218368D01*
Y219000D01*
X183368D01*
X172884Y229484D01*
X171561Y230368D01*
X170000Y230678D01*
X170000Y230678D01*
X156000D01*
Y243000D01*
X151427D01*
X150941Y244173D01*
X156689Y249922D01*
X186311D01*
X187637Y248595D01*
D02*
G37*
G36*
X182006Y204815D02*
X182024Y204591D01*
X182055Y204380D01*
X182097Y204180D01*
X182152Y203993D01*
X182219Y203818D01*
X182299Y203656D01*
X182390Y203506D01*
X182494Y203368D01*
X182610Y203242D01*
X179390D01*
X179506Y203368D01*
X179609Y203506D01*
X179701Y203656D01*
X179780Y203818D01*
X179847Y203993D01*
X179902Y204180D01*
X179945Y204380D01*
X179975Y204591D01*
X179993Y204815D01*
X180000Y205051D01*
X182000D01*
X182006Y204815D01*
D02*
G37*
G36*
X89016Y203216D02*
X89016Y203216D01*
X90339Y202332D01*
X91900Y202022D01*
X141811D01*
X148623Y195210D01*
X148137Y194036D01*
X96958D01*
X95397Y193726D01*
X94074Y192842D01*
X94074Y192842D01*
X83566Y182334D01*
X82396Y182959D01*
X82404Y183000D01*
X81993Y185068D01*
X80821Y186821D01*
X80426Y187085D01*
X80694Y188433D01*
X81068Y188507D01*
X82821Y189679D01*
X83993Y191432D01*
X84404Y193500D01*
X83993Y195568D01*
X82821Y197321D01*
X81068Y198493D01*
X79000Y198904D01*
X76932Y198493D01*
X76785Y198394D01*
X76142D01*
X75007Y199529D01*
X75069Y200000D01*
X74794Y202088D01*
X74228Y203455D01*
X74962Y204541D01*
X75071Y204610D01*
X77068Y205007D01*
X78821Y206179D01*
X79992Y207932D01*
X80404Y210000D01*
X80396Y210040D01*
X81566Y210666D01*
X89016Y203216D01*
D02*
G37*
G36*
X163900Y170719D02*
X163832Y170658D01*
X163771Y170575D01*
X163717Y170471D01*
X163670Y170345D01*
X163630Y170198D01*
X163598Y170029D01*
X163573Y169839D01*
X163544Y169395D01*
X163540Y169140D01*
X161540Y169166D01*
X161537Y169422D01*
X161485Y170062D01*
X161454Y170233D01*
X161416Y170381D01*
X161371Y170508D01*
X161319Y170614D01*
X161260Y170699D01*
X161194Y170761D01*
X163900Y170719D01*
D02*
G37*
G36*
X78695Y164462D02*
X68311Y154079D01*
X66933Y154497D01*
X66710Y155618D01*
X65538Y157371D01*
X63785Y158542D01*
X61717Y158954D01*
X59649Y158542D01*
X57896Y157371D01*
X56725Y155618D01*
X56513Y154554D01*
X55102Y153970D01*
X55068Y153993D01*
X53000Y154404D01*
X50932Y153993D01*
X49179Y152821D01*
X48007Y151068D01*
X47596Y149000D01*
X48007Y146932D01*
X49179Y145179D01*
X50932Y144008D01*
X52546Y143687D01*
X52911Y143322D01*
X54234Y142438D01*
X55794Y142127D01*
X66206D01*
X66206Y142127D01*
X67766Y142438D01*
X69089Y143322D01*
X71379Y145611D01*
X72757Y145193D01*
X73007Y143932D01*
X74179Y142179D01*
X75932Y141007D01*
X78000Y140596D01*
X80068Y141007D01*
X81821Y142179D01*
X82992Y143932D01*
X83314Y145546D01*
X97689Y159922D01*
X129358D01*
X129884Y158652D01*
X127546Y156313D01*
X125932Y155992D01*
X124179Y154821D01*
X123007Y153068D01*
X122596Y151000D01*
X122209Y150528D01*
X115194D01*
X113350Y152373D01*
X113029Y153986D01*
X111857Y155739D01*
X110104Y156911D01*
X108036Y157322D01*
X105968Y156911D01*
X104215Y155739D01*
X103044Y153986D01*
X102632Y151918D01*
X103044Y149850D01*
X104215Y148097D01*
X105968Y146926D01*
X107582Y146605D01*
X110621Y143566D01*
X110621Y143566D01*
X111944Y142682D01*
X112610Y142550D01*
X113636Y141201D01*
X113596Y141000D01*
X114008Y138932D01*
X115179Y137179D01*
X115971Y136649D01*
X116132Y135014D01*
X115196Y134078D01*
X47689D01*
X36086Y145682D01*
X36711Y146853D01*
X38000Y146596D01*
X40068Y147008D01*
X41821Y148179D01*
X42993Y149932D01*
X43404Y152000D01*
X42993Y154068D01*
X41821Y155821D01*
X40068Y156993D01*
X38000Y157404D01*
X35932Y156993D01*
X34179Y155821D01*
X33008Y154068D01*
X32612Y152080D01*
X32556Y151968D01*
X31478Y151110D01*
X30000Y151404D01*
X27932Y150992D01*
X26179Y149821D01*
X25008Y148068D01*
X24596Y146000D01*
X25008Y143932D01*
X26179Y142179D01*
X26920Y141684D01*
X26535Y140414D01*
X17937D01*
X17552Y141684D01*
X18621Y142398D01*
X19792Y144151D01*
X20204Y146219D01*
X20002Y147234D01*
X37689Y164922D01*
X76000D01*
X76000Y164922D01*
X77561Y165232D01*
X77885Y165449D01*
X78695Y164462D01*
D02*
G37*
G36*
X193727Y198940D02*
X194034Y198891D01*
X195179Y197178D01*
X196932Y196007D01*
X199000Y195596D01*
X201068Y196007D01*
X201632Y196384D01*
X202494Y195094D01*
X204561Y193713D01*
X207000Y193228D01*
X208192Y193465D01*
X209371Y193550D01*
X209682Y191990D01*
X210566Y190667D01*
X221686Y179546D01*
X222008Y177932D01*
X223179Y176179D01*
X224639Y175203D01*
X225025Y173793D01*
X210116Y158884D01*
X209232Y157561D01*
X208922Y156000D01*
X208922Y156000D01*
Y154433D01*
X207652Y153675D01*
X206000Y154004D01*
X203932Y153593D01*
X202179Y152421D01*
X201007Y150668D01*
X200596Y148600D01*
X201007Y146532D01*
X202179Y144779D01*
X203932Y143608D01*
X206000Y143196D01*
X208068Y143608D01*
X209500Y144564D01*
X210932Y143608D01*
X213000Y143196D01*
X213083Y143213D01*
X213799Y142060D01*
X213012Y141034D01*
X212206Y139088D01*
X211931Y137000D01*
X212206Y134912D01*
X213012Y132965D01*
X214294Y131294D01*
X215820Y130124D01*
X215596Y129000D01*
X216007Y126932D01*
X217179Y125179D01*
X218932Y124008D01*
X221000Y123596D01*
X223068Y124008D01*
X224821Y125179D01*
X225993Y126932D01*
X226404Y129000D01*
X225993Y131068D01*
X225778Y131389D01*
X226652Y132527D01*
X227922Y132096D01*
Y119492D01*
X226940Y118686D01*
X225500Y118972D01*
X223061Y118487D01*
X220994Y117106D01*
X219613Y115039D01*
X219128Y112600D01*
X219613Y110161D01*
X220994Y108094D01*
X223061Y106713D01*
X225500Y106228D01*
X226003Y106328D01*
X227274Y105326D01*
X227302Y104670D01*
X216711Y94078D01*
X210792D01*
X210506Y94506D01*
X208439Y95887D01*
X206000Y96372D01*
X203561Y95887D01*
X201494Y94506D01*
X201348Y94288D01*
X200078Y94673D01*
Y122927D01*
X201348Y123312D01*
X201494Y123094D01*
X203561Y121713D01*
X206000Y121228D01*
X208439Y121713D01*
X210506Y123094D01*
X211887Y125161D01*
X212372Y127600D01*
X211887Y130039D01*
X210506Y132106D01*
X208439Y133487D01*
X206000Y133973D01*
X203561Y133487D01*
X201494Y132106D01*
X201348Y131888D01*
X200078Y132273D01*
Y141599D01*
X200078Y141599D01*
X199768Y143160D01*
X198884Y144483D01*
X198884Y144483D01*
X195193Y148174D01*
X195258Y148500D01*
X194847Y150568D01*
X193675Y152321D01*
X191922Y153493D01*
X189854Y153904D01*
X187786Y153493D01*
X186567Y152678D01*
X185768Y153213D01*
X183700Y153624D01*
X183269Y153538D01*
X182371Y154436D01*
X182404Y154600D01*
X181992Y156668D01*
X180870Y158348D01*
X180993Y158532D01*
X181404Y160600D01*
X180993Y162668D01*
X181941Y163534D01*
X182829Y164127D01*
X184001Y165881D01*
X184322Y167494D01*
X186434Y169606D01*
X186434Y169607D01*
X187318Y170930D01*
X187628Y172490D01*
X187628Y172491D01*
Y183885D01*
X187318Y185445D01*
X186434Y186768D01*
X186434Y186768D01*
X183703Y189499D01*
X183993Y189932D01*
X184404Y192000D01*
X184368Y192182D01*
X185337Y193282D01*
X186660Y194166D01*
X188216Y195722D01*
X189830Y196043D01*
X191583Y197214D01*
X192717Y198910D01*
X193056Y198959D01*
X193727Y198940D01*
D02*
G37*
G36*
X131147Y152733D02*
X130985Y152562D01*
X130840Y152391D01*
X130712Y152220D01*
X130601Y152049D01*
X130507Y151878D01*
X130431Y151707D01*
X130373Y151536D01*
X130331Y151365D01*
X130307Y151194D01*
X130300Y151023D01*
X128023Y153300D01*
X128194Y153307D01*
X128365Y153331D01*
X128536Y153373D01*
X128707Y153431D01*
X128878Y153507D01*
X129049Y153601D01*
X129220Y153712D01*
X129391Y153840D01*
X129562Y153985D01*
X129733Y154148D01*
X131147Y152733D01*
D02*
G37*
G36*
X110343Y151725D02*
X110367Y151554D01*
X110409Y151383D01*
X110468Y151212D01*
X110544Y151041D01*
X110637Y150870D01*
X110748Y150699D01*
X110876Y150527D01*
X111021Y150356D01*
X111184Y150185D01*
X109769Y148771D01*
X109598Y148933D01*
X109427Y149079D01*
X109256Y149207D01*
X109085Y149318D01*
X108914Y149411D01*
X108743Y149487D01*
X108572Y149546D01*
X108401Y149587D01*
X108230Y149612D01*
X108059Y149619D01*
X110336Y151895D01*
X110343Y151725D01*
D02*
G37*
G36*
X173471Y140794D02*
X173300Y140787D01*
X173129Y140763D01*
X172958Y140721D01*
X172787Y140662D01*
X172616Y140586D01*
X172445Y140493D01*
X172274Y140382D01*
X172103Y140254D01*
X171932Y140109D01*
X171761Y139946D01*
X170346Y141361D01*
X170509Y141532D01*
X170654Y141703D01*
X170782Y141874D01*
X170893Y142045D01*
X170986Y142216D01*
X171062Y142387D01*
X171121Y142558D01*
X171163Y142729D01*
X171187Y142900D01*
X171194Y143071D01*
X173471Y140794D01*
D02*
G37*
G36*
X186922Y139231D02*
Y93562D01*
X157587Y64228D01*
X156555Y64433D01*
X154117Y63948D01*
X152049Y62566D01*
X150668Y60499D01*
X150183Y58060D01*
X150668Y55622D01*
X152049Y53554D01*
X154117Y52173D01*
X156555Y51688D01*
X158994Y52173D01*
X161061Y53554D01*
X162443Y55622D01*
X162921Y58026D01*
X164073Y59178D01*
X165244Y58552D01*
X165146Y58060D01*
X165631Y55622D01*
X167012Y53554D01*
X169079Y52173D01*
X171518Y51688D01*
X173957Y52173D01*
X176024Y53554D01*
X177405Y55622D01*
X177891Y58060D01*
X177829Y58371D01*
X198884Y79426D01*
X198884Y79426D01*
X199768Y80750D01*
X200078Y82310D01*
X200078Y82310D01*
Y85327D01*
X201348Y85712D01*
X201494Y85494D01*
X203561Y84113D01*
X206000Y83628D01*
X208439Y84113D01*
X210506Y85494D01*
X210792Y85922D01*
X214322D01*
Y73689D01*
X189711Y49078D01*
X112689D01*
X111179Y50589D01*
X111841Y51723D01*
X114105Y52173D01*
X116173Y53554D01*
X117554Y55622D01*
X118039Y58060D01*
X117554Y60499D01*
X116173Y62566D01*
X114105Y63948D01*
X111667Y64433D01*
X109228Y63948D01*
X107161Y62566D01*
X105779Y60499D01*
X105329Y58235D01*
X104195Y57573D01*
X102920Y58848D01*
X102591Y60499D01*
X101210Y62566D01*
X99142Y63948D01*
X96704Y64433D01*
X94265Y63948D01*
X92198Y62566D01*
X90816Y60499D01*
X90526Y59038D01*
X89148Y58620D01*
X87718Y60050D01*
X87628Y60499D01*
X87523Y60656D01*
X87507Y60705D01*
X87927Y62337D01*
X88463Y62696D01*
X122652Y96884D01*
X123922Y96358D01*
Y63768D01*
X122123Y62566D01*
X120742Y60499D01*
X120257Y58060D01*
X120742Y55622D01*
X122123Y53554D01*
X124191Y52173D01*
X126629Y51688D01*
X129068Y52173D01*
X131136Y53554D01*
X132517Y55622D01*
X133002Y58060D01*
X132517Y60499D01*
X132078Y61155D01*
Y95911D01*
X136697Y100529D01*
X137967Y100003D01*
Y63155D01*
X137086Y62566D01*
X135705Y60499D01*
X135220Y58060D01*
X135705Y55622D01*
X137086Y53554D01*
X139154Y52173D01*
X141592Y51688D01*
X144031Y52173D01*
X146098Y53554D01*
X147480Y55622D01*
X147965Y58060D01*
X147480Y60499D01*
X146124Y62529D01*
Y99956D01*
X180928Y134760D01*
X180928Y134760D01*
X181812Y136083D01*
X182122Y137644D01*
X182122Y137644D01*
Y142129D01*
X182767Y142659D01*
X183392Y142760D01*
X186922Y139231D01*
D02*
G37*
D11*
X246189Y264503D02*
X251691Y259000D01*
X252000D01*
X195820Y149770D02*
X196640Y148950D01*
X6000Y144000D02*
X13665Y136335D01*
X31326D01*
X6000Y144000D02*
Y205000D01*
X21000Y220000D01*
X154136Y189958D02*
X156644Y187450D01*
X96958Y189958D02*
X154136D01*
X179985Y187450D02*
X183550Y183885D01*
Y172490D02*
Y183885D01*
X156644Y187450D02*
X179985D01*
X179008Y167948D02*
X183550Y172490D01*
X76000Y169000D02*
X96958Y189958D01*
X36000Y169000D02*
X76000D01*
X15297Y148297D02*
X36000Y169000D01*
X15297Y146716D02*
Y148297D01*
X14800Y146219D02*
X15297Y146716D01*
X182600Y214000D02*
X209000D01*
X225751Y230751D01*
X170000Y226600D02*
X182600Y214000D01*
X225751Y230751D02*
Y239601D01*
X188000Y239782D02*
Y241000D01*
X146048Y231952D02*
X151400Y226600D01*
X170000D01*
X148803Y222000D02*
X166156D01*
X145349Y225454D02*
X148803Y222000D01*
X166156D02*
X181000Y207157D01*
X96000Y231000D02*
Y241000D01*
Y231000D02*
X116854Y210146D01*
X78000Y220000D02*
X91900Y206100D01*
X78000Y220000D02*
Y241000D01*
X238000Y184750D02*
Y187000D01*
Y178000D02*
Y184750D01*
X213000Y156000D02*
X230000Y173000D01*
X233000D01*
X238000Y178000D01*
Y187000D02*
X245000Y194000D01*
Y204000D01*
X230000Y166000D02*
X237000D01*
X247000Y176000D01*
X230248Y191248D02*
X235172Y196172D01*
X231000Y207000D02*
X235172Y202828D01*
Y196172D02*
Y202828D01*
X220000Y137000D02*
X220502Y136497D01*
Y129497D02*
Y136497D01*
Y129497D02*
X221000Y129000D01*
X66206Y146206D02*
X98600Y178600D01*
X53000Y149000D02*
X55794Y146206D01*
X66206D01*
X98600Y178600D02*
X155000D01*
X159000Y182600D02*
X159000D01*
X155000Y178600D02*
X159000Y182600D01*
X149450Y146450D02*
X179000Y176000D01*
X113505Y146450D02*
X149450D01*
X179000Y176000D02*
X179000D01*
X108036Y151918D02*
X113505Y146450D01*
X140000Y163000D02*
X156400D01*
X128000Y151000D02*
X140000Y163000D01*
X156400D02*
X162540Y169140D01*
Y172564D02*
X162576Y172600D01*
X162540Y169140D02*
Y172564D01*
X141374Y175103D02*
X158645D01*
X165541Y182000D01*
X179000D01*
X96000Y164000D02*
X130271D01*
X78000Y146000D02*
X96000Y164000D01*
X130271D02*
X141374Y175103D01*
X172000Y160600D02*
X176000D01*
X146400Y135000D02*
X172000Y160600D01*
X121889Y135003D02*
X136445D01*
X136448Y135000D02*
X146400D01*
X136445Y135003D02*
X136448Y135000D01*
X116886Y130000D02*
X121889Y135003D01*
X30000Y146000D02*
X46000Y130000D01*
X116886D01*
X218400Y90000D02*
X232000Y103600D01*
X229000Y156000D02*
X232000Y153000D01*
Y103600D02*
Y153000D01*
X218400Y72000D02*
Y90000D01*
X191400Y45000D02*
X218400Y72000D01*
X206000Y90000D02*
X218400D01*
X201250Y240750D02*
X218966D01*
X188000Y254000D02*
X201250Y240750D01*
X155000Y254000D02*
X188000D01*
X125000Y224000D02*
X155000Y254000D01*
X189000Y259000D02*
X202299Y245701D01*
X218121D01*
X149094Y259000D02*
X189000D01*
X132094Y242000D02*
X149094Y259000D01*
X132000Y242000D02*
X132094D01*
X218966Y240750D02*
X222368Y244151D01*
X229828D02*
X231000Y242980D01*
Y224000D02*
Y242980D01*
X222368Y244151D02*
X229828D01*
X227000Y191000D02*
X227248Y191248D01*
X230248D01*
X219498Y155498D02*
X230000Y166000D01*
X231000Y217000D02*
X240100Y226100D01*
Y242650D01*
X231000Y207000D02*
Y217000D01*
X233750Y249000D02*
X240100Y242650D01*
X213450Y206450D02*
X231000Y224000D01*
X218121Y245701D02*
X221420Y249000D01*
X233750D01*
X213450Y193550D02*
X227000Y180000D01*
X213450Y193550D02*
Y206450D01*
X213000Y148600D02*
Y156000D01*
X58846Y52154D02*
X67695D01*
X85580Y65579D02*
X174102Y154102D01*
X83000Y59000D02*
X103000Y39000D01*
X196000D01*
X67695Y52154D02*
X81120Y65579D01*
X53934Y57066D02*
X58846Y52154D01*
X81120Y65579D02*
X85580D01*
X196000Y39000D02*
X243000Y86000D01*
Y156128D01*
X111000Y45000D02*
X191400D01*
X98056Y57944D02*
X111000Y45000D01*
X116854Y210146D02*
X146103D01*
X91900Y206100D02*
X143500D01*
X160494Y196094D02*
X161198D01*
X159269Y197320D02*
X160494Y196094D01*
X158929Y197320D02*
X159269D01*
X146103Y210146D02*
X158929Y197320D01*
X143500Y206100D02*
X158056Y191544D01*
X177544D02*
X178000Y192000D01*
X158056Y191544D02*
X177544D01*
X219000Y148600D02*
X219498Y149097D01*
Y155498D01*
X143896Y231952D02*
X146048D01*
X143399Y232449D02*
X143896Y231952D01*
X171518Y57828D02*
X196000Y82310D01*
X189854Y147745D02*
X196000Y141599D01*
Y82310D02*
Y141599D01*
X245000Y158128D02*
Y158600D01*
X243000Y156128D02*
X245000Y158128D01*
X65086Y81000D02*
X65891Y80195D01*
Y60164D02*
Y80195D01*
Y60164D02*
X66623Y59433D01*
Y57654D02*
Y59433D01*
X51815Y57066D02*
X53934D01*
X142045Y101645D02*
X178044Y137644D01*
X142045Y58002D02*
Y101645D01*
X191000Y91873D02*
Y140920D01*
X156956Y57828D02*
X191000Y91873D01*
X96850Y57944D02*
X98056D01*
X176502Y154102D02*
X177000Y154600D01*
X174102Y154102D02*
X176502D01*
X143000Y226600D02*
X143703D01*
X144849Y225454D01*
X145349D01*
X145448Y219552D02*
X167950Y197050D01*
X173015D01*
X173115Y197150D01*
X176884D01*
X143703Y220599D02*
X144750Y219552D01*
X145448D01*
X142000Y220599D02*
X143703D01*
X176884Y197150D02*
X176984Y197050D01*
X183776D01*
X128000Y97600D02*
X173494Y143094D01*
X128000Y59000D02*
Y97600D01*
X177316Y148758D02*
X178044Y148031D01*
Y137644D02*
Y148031D01*
X183776Y197050D02*
X187762Y201035D01*
X181000Y201600D02*
Y207157D01*
X183700Y148220D02*
X191000Y140920D01*
X189854Y147745D02*
Y148500D01*
D35*
X118000Y267000D02*
Y267447D01*
X116000Y269447D02*
X118000Y267447D01*
X116000Y269447D02*
Y278000D01*
X137138Y267232D02*
Y267772D01*
X136000Y268910D02*
X137138Y267772D01*
X136000Y268910D02*
Y278000D01*
D36*
X44000Y218106D02*
Y220000D01*
X49694Y211306D02*
X50000Y211000D01*
X49694Y211306D02*
Y212412D01*
X44000Y218106D02*
X49694Y212412D01*
X94661Y273161D02*
Y276661D01*
X82750Y261250D02*
X94661Y273161D01*
Y276661D02*
X96000Y278000D01*
X67000Y218433D02*
Y220000D01*
Y218433D02*
X75000Y210433D01*
Y210000D02*
Y210433D01*
X67000Y200000D02*
X68047D01*
X74241Y193806D01*
X78694D01*
X79000Y193500D01*
X67000Y180000D02*
X68339Y181339D01*
X74906D01*
X76567Y183000D01*
X77000D01*
X44000Y180000D02*
X44000D01*
X49735Y174265D01*
X52735D01*
X53000Y174000D01*
X44000Y200000D02*
X45894D01*
X50913Y194981D01*
X54019D01*
X54325Y194675D01*
D37*
X109000Y230000D02*
Y234000D01*
D39*
X255000Y283000D02*
D03*
X250000Y273000D02*
D03*
X255000Y223000D02*
D03*
Y83000D02*
D03*
Y63000D02*
D03*
X245000Y283000D02*
D03*
X240000Y273000D02*
D03*
X235000Y283000D02*
D03*
X230000Y273000D02*
D03*
X235000Y263000D02*
D03*
X225000Y283000D02*
D03*
X215000D02*
D03*
X205000D02*
D03*
X195000D02*
D03*
X190000Y273000D02*
D03*
X185000Y283000D02*
D03*
X180000Y73000D02*
D03*
X175000Y283000D02*
D03*
X165000D02*
D03*
Y83000D02*
D03*
X160000Y73000D02*
D03*
X155000Y83000D02*
D03*
X150000Y73000D02*
D03*
X100000Y93000D02*
D03*
X90000D02*
D03*
X80000D02*
D03*
X70000D02*
D03*
X65000Y103000D02*
D03*
X60000Y93000D02*
D03*
X50000Y113000D02*
D03*
X55000Y103000D02*
D03*
X50000Y93000D02*
D03*
X55000Y83000D02*
D03*
X45000Y123000D02*
D03*
Y103000D02*
D03*
Y83000D02*
D03*
X25000Y283000D02*
D03*
X20000Y273000D02*
D03*
X15000Y283000D02*
D03*
X10000Y273000D02*
D03*
Y73000D02*
D03*
X15000Y63000D02*
D03*
X246189Y264503D02*
D03*
X143232Y214696D02*
D03*
X194155Y231934D02*
D03*
X0Y134000D02*
D03*
X254771Y189958D02*
D03*
X257223Y174615D02*
D03*
X134000Y219000D02*
D03*
X235550Y235949D02*
D03*
X50000Y211000D02*
D03*
X179008Y167948D02*
D03*
X14800Y146219D02*
D03*
X118000Y267000D02*
D03*
X137138Y267232D02*
D03*
X221000Y129000D02*
D03*
X53000Y174000D02*
D03*
X54325Y194675D02*
D03*
X75000Y210000D02*
D03*
X79000Y193500D02*
D03*
X77000Y183000D02*
D03*
X159000Y182600D02*
D03*
X53000Y149000D02*
D03*
X61717Y153550D02*
D03*
X179000Y176000D02*
D03*
X108036Y151918D02*
D03*
X162576Y172600D02*
D03*
X128000Y151000D02*
D03*
X179000Y182000D02*
D03*
X78000Y146000D02*
D03*
X176000Y160600D02*
D03*
X30000Y146000D02*
D03*
X261000Y141000D02*
D03*
X125000Y224000D02*
D03*
X132000Y242000D02*
D03*
X253550Y198600D02*
D03*
X227000Y191000D02*
D03*
Y180000D02*
D03*
X161198Y196094D02*
D03*
X179000Y192000D02*
D03*
X213000Y148600D02*
D03*
X219000D02*
D03*
X143399Y232449D02*
D03*
X225751Y239601D02*
D03*
X256737Y164937D02*
D03*
X31326Y136335D02*
D03*
X229000Y156000D02*
D03*
X218000Y201000D02*
D03*
X199000D02*
D03*
X143000Y220599D02*
D03*
Y226600D02*
D03*
X119000Y141000D02*
D03*
X177316Y148758D02*
D03*
X177000Y154600D02*
D03*
X141000Y140600D02*
D03*
X187762Y201035D02*
D03*
X181000Y201600D02*
D03*
X38000Y152000D02*
D03*
X206000Y148600D02*
D03*
X173494Y143094D02*
D03*
X189854Y148500D02*
D03*
X245000Y158600D02*
D03*
X183700Y148220D02*
D03*
D40*
X165389Y214989D02*
D03*
X43000Y162000D02*
D03*
X58000Y206000D02*
D03*
X214000Y112600D02*
D03*
X196640Y148950D02*
D03*
X162260Y96314D02*
D03*
X202000Y112600D02*
D03*
X193000Y184600D02*
D03*
X213000D02*
D03*
Y164600D02*
D03*
X193000D02*
D03*
X144000Y184100D02*
D03*
X8000Y58000D02*
D03*
X248000D02*
D03*
X138000Y200600D02*
D03*
X144000Y169000D02*
D03*
X170000Y235250D02*
D03*
X64000Y233000D02*
D03*
X86000Y226000D02*
D03*
X206000Y90000D02*
D03*
X188000Y241000D02*
D03*
X227000Y199600D02*
D03*
X82750Y261250D02*
D03*
X109000Y230000D02*
D03*
X81741Y58060D02*
D03*
X65329D02*
D03*
X51815D02*
D03*
X141592D02*
D03*
X156555D02*
D03*
X171518D02*
D03*
X126629D02*
D03*
X111667D02*
D03*
X96704D02*
D03*
X207000Y199600D02*
D03*
X151858Y184458D02*
D03*
X154413Y169604D02*
D03*
X206000Y127600D02*
D03*
X65086Y81000D02*
D03*
X225500Y112600D02*
D03*
D45*
X252000Y259000D02*
D03*
X21000Y180000D02*
D03*
X156000Y278000D02*
D03*
X78000Y241000D02*
D03*
X96000D02*
D03*
X247000Y176000D02*
D03*
X245000Y204000D02*
D03*
X44000Y220000D02*
D03*
X21000Y220000D02*
D03*
X44000Y180000D02*
D03*
X67000Y200000D02*
D03*
Y220000D02*
D03*
X44000Y200000D02*
D03*
X67000Y180000D02*
D03*
X136000Y278000D02*
D03*
X220000Y137000D02*
D03*
X116000Y278000D02*
D03*
X96000D02*
D03*
M02*
